<?xml version="1.0" encoding="utf-8"?>
<!-- Generator: Adobe Illustrator 21.0.0, SVG Export Plug-In . SVG Version: 6.00 Build 0)  -->
<svg version="1.1" id="Capa_2" xmlns="http://www.w3.org/2000/svg" xmlns:xlink="http://www.w3.org/1999/xlink" x="0px" y="0px"
	 viewBox="0 0 1080 1080" style="enable-background:new 0 0 1080 1080;" xml:space="preserve">
<style type="text/css">
	.st0{fill:#FFFFFF;stroke:#000000;stroke-miterlimit:10;}
	.st1{fill:#FFFFFF;}
	.st2{fill:none;}
</style>
<g id="Capa_1">
	<g>
		<path class="st0" d="M336.6,612.7c0.4-1.1,0.6-2,0.7-2.7c0,0,0,0,0,0c0.2-0.3,0.3-0.5,0.4-0.9c1.6-5.6,1.7-10.4,0.2-14.2
			c-1.4-3.5-3.5-6.6-6.3-9.2c-0.5-0.6-1.2-1.2-2.1-1.8c-0.9-0.5-1.6-0.9-2.3-1.2c-0.3-0.1-0.8-0.4-1.6-0.9c-0.8-0.5-1.7-1-2.7-1.5
			c-1.1-0.5-2.4-1-3.9-1.5c-0.2-0.1-0.3-0.1-0.5-0.1c1.6-4.9,3.4-9.9,5.4-15.1c2.2-5.8,4.6-11.8,7.1-17.8
			c6.6-17.2,12.1-31.5,16.5-42.9c4.5-11.8,8-20.8,10.7-27.6l2.7-6.8c1.4-3.6,2.6-6.5,3.4-8.6c1.3-3.2,2.2-5.4,2.9-6.8
			c2.1-4.3,2.3-9.1,0.7-14.4c0-0.1,0-0.1-0.1-0.2c-0.8-2.1-1.9-3.9-3.1-5.5c-0.1-0.1-0.2-0.2-0.3-0.3c-5.2-4.7-10.9-8.8-16.9-12.2
			c-3.2-2-6.5-3.3-9.7-3.8c-0.7-0.1-1.5,0.1-2,0.6c-0.6,0.5-0.9,1.2-0.9,1.9c0,1.7-0.2,3.9-0.5,6.6c-0.7,4.9-2.9,12.5-6.5,22.5
			c-1,2.6-2,5-3,7.2c-0.9,2.1-2.3,5.4-4.2,10.2c-1.8,4.6-4.3,11.2-7.5,20c-3.1,8.5-7.5,20.2-13.5,35.9c0,0,0,0.1,0,0.1
			c-0.7,2.3-1.5,4.4-2.1,6.1c-0.7,1.9-1.5,3.9-2.2,6.3c-1.5,3.3-2.8,6.6-3.9,9.9c-1.1,3.1-2.3,6.5-3.8,10.4c0,0.1-0.1,0.1-0.1,0.2
			c-1.1,3.6-2.3,7.1-3.5,10.3c-1.1,2.7-2.1,5.7-3.1,8.8c-10.6-0.4-22.5-0.1-35.5,0.8c-12.3,0.8-24.3,2.2-35.8,4.2
			c4.5-11.9,8.5-22.5,12.2-32.6c4.3-11.6,8.5-22.6,12.4-32.8c3.9-10,7.2-18.6,9.9-25.8c2.7-7.2,4.8-12.4,6.3-15.6c0,0,0-0.1,0-0.1
			c7.4-18.9,10.8-34.3,10.1-45.7c-0.8-11.9-8-22.6-21.4-31.9c-18.4-13.1-35.2-22.8-50-28.9c-19.1-8.1-35.7-10.8-49.3-8.2
			c-13.6,2.6-25,8-33.9,15.9c-8.8,7.9-15.8,17.2-20.7,27.7c-4.8,10.4-8,19.5-9.5,27c-1.9,7.6-2.7,16.6-2.5,26.8
			c0.2,10.2,1.7,20.5,4.5,30.6c2.8,10.2,7.2,19.9,13,28.6c5.9,8.9,13.7,15.9,23.2,20.7c9.5,4.8,18.1,7.2,25.4,6.9
			c7.3-0.2,13.5-1.6,18.6-4.1c5.9-2.5,10.8-6.5,14.7-12c0.5-0.7,0.6-1.6,0.3-2.4c-0.3-0.8-1.1-1.4-1.9-1.5
			c-9.2-1.3-17.6-4.4-25.2-9.1c-7.6-4.7-14.1-10.7-19.4-17.9c-5.3-7.2-9.6-15.5-12.8-24.8c-3.2-9.2-4.8-18.7-4.8-28.2
			c-0.4-9.4,1.2-19.1,4.5-28.7c3.3-9.4,8.9-16.7,16.9-21.7c7.9-5,18.8-6.9,32.2-5.6c13.7,1.4,31,8.3,51.4,20.6
			c2.1,1.3,4.6,3.3,7.6,6c2.7,2.4,5.3,4.7,7.8,6.7c-1.4,4.4-3.2,9.8-5.2,16.1c-2.4,7.2-5.8,16.2-10.1,26.8
			c-7.4,19.7-15.5,40.8-24.2,62.8c-8.6,21.9-17.2,44.4-25.5,66.7c-7.4,3.2-14.2,6.7-20.3,10.6c-6.3,4-11.9,8.1-16.7,12.4
			c-7.4,5.2-13,10.2-16.6,14.7c-3.5,4.5-6,7.8-7.5,10.2l-0.5,0.6c-0.1,0.1-0.1,0.2-0.2,0.3c-4.2,7.2-6.7,13.7-7.5,19.4
			c-0.8,5.5-1.1,8.9-1.1,10.5v1.4c0,7.4,1.4,13.5,4.2,18.1c0.1,0.1,0.1,0.2,0.2,0.2c1.5,2,3.1,3.7,4.6,5.1c0.7,0.6,1.7,0.9,2.6,0.5
			c0.9-0.3,1.5-1.1,1.6-2c1-7.9,4.1-15.6,8.9-22.6c0,0,0.1-0.1,0.1-0.1c1-1.8,2.4-3.6,4.1-5.6c1.7-2,3.3-3.6,4.6-4.9
			c0.9-0.6,1.5-1.2,2.1-1.8c0.1-0.1,0.4-0.4,1-0.8c0.2-0.2,0.4-0.3,0.6-0.6c0.2-0.3,0.4-0.5,0.5-0.6c0.4-0.1,0.7-0.3,1-0.6
			c3.6-3.6,7.2-6.8,10.7-9.5c1.7-1.3,3.5-2.6,5.3-3.9c-7.6,23.1-13.5,44.1-17.5,62.5c-4.5,20.8-4.7,35-0.5,43.6
			c0.5,2.1,1.5,4.2,3.1,6.2c2.7,4.3,6.3,8.5,10.8,12.3c1.8,1.6,5,4.4,7.8,4.4c0.9,0,1.8-0.3,2.5-1.1c1.6-1.6,1.9-4,0.9-7.2
			c-0.3-2.7-0.6-5.2-0.8-7.7c-0.2-3.2-0.3-4.5-0.3-5.1v-3.1c0-1,0.2-2,0.5-3.2c0-0.2,0.1-0.3,0.1-0.5c0.3-6.3,1.3-13,3-19.8
			c1.6-6.9,3.7-14.3,6.2-22c3.7-8,8.5-20,14.3-35.6c5.7-15.5,12.3-32.5,19.4-50.6c14.9-5.8,29.5-10.3,43.5-13.5
			c12.6-2.8,24.2-5,34.4-6.4c-3.8,10-7.2,19.2-10,27.2c-1.4,3.8-2.4,6.7-3.1,8.7c-0.5,1.4-0.8,2.4-0.9,3.3
			c-7.3,22.3-11.2,39.5-11.5,51.3c-0.4,12.4,0.6,20,3.2,23.8c2.6,3.8,5.4,7,8.1,9.5c2.7,2.4,4.9,4.3,6.8,5.7c0.1,0,0.1,0.1,0.2,0.1
			c2.8,1.8,6.6,2.1,11.5,1c4.9-1.1,9.8-5.8,15-14.3c1.6-2.1,4.2-6.8,7.9-14.3c3.8-7.7,7.9-16.3,12.1-25.5
			c4.4-9.4,8.8-19.6,13.2-30.1C330.4,631.4,334,621.6,336.6,612.7z M316.9,614c0,0.2-0.1,0.3-0.1,0.5c-0.3,0.5-0.5,1-0.5,1.7
			c-0.7,1.7-1.4,3.3-2,4.7c-0.8,1.7-1.5,3.8-2.3,6.2c-0.7,2.2-1.7,4.5-2.9,7c-1.3,2.6-2.4,5.2-3.2,7.6c-2.2,5.9-4.5,11.6-7,16.8
			c-2.5,5.2-4.8,9.6-6.8,13.1c-1.6,2.8-2.8,4-3.4,4.5c-0.1-0.4-0.3-1.2-0.4-2.4c0-0.1,0-0.2,0-0.2c-0.1-0.4-0.3-2.7,3.2-14.1
			c2.5-8.3,5.9-18.6,9.9-30.6c0.1-0.3,0.1-0.5,0.1-0.8c0-0.2,0.1-1.1,0.9-3.3c1.8-4.7,3.5-9.5,5-14.5c1.4-4.7,3-9.6,4.8-14.6
			c2.9,2.4,4.5,5.1,4.9,8.2C317.6,608.1,317.6,611.6,316.9,614z"/>
		<path class="st0" d="M641,565.1c2.3,0.9,4.9,1.4,7.9,1.4c3.1,0,6.4-0.5,10.1-1.5c6.3-1.6,11-4.3,13.9-7.9c3.1-3.8,4.4-6.5,4.3-8.8
			c-0.1-0.8-0.5-1.6-1.2-2c-0.7-0.4-1.6-0.5-2.3-0.1c-6.3,2.8-12.4,4.6-18.2,5.5c-4.9,0.8-10.1,0.7-15.3-0.2c0,0,0,0,0,0
			c-4.7-0.8-8.3-3.1-11-7c-0.2-1-0.8-1.7-1.2-2.1c-1.2-1-2.8-1-4.2,0c-0.9,0.6-1.2,1.7-0.9,2.7c1.5,4.8,3.9,9.1,7.1,12.6
			C632.7,560.9,636.4,563.3,641,565.1z"/>
		<path class="st0" d="M1019,588.5C1019,588.5,1019,588.5,1019,588.5c-0.2-1.2-0.4-2.3-0.8-3.3c-0.3-1.3-0.7-2.3-1.1-3.1
			c0-0.1-0.1-0.2-0.2-0.3c-1.9-2.8-4-5.4-6.3-7.5c-2.2-2-4.1-3.6-5.6-4.8c-2.2-1.8-4.4-2.9-6.7-3.3c-2.1-0.3-3.3-0.5-4.1-0.5h-11.4
			c-3.3,0-6.7,0.2-10.2,0.5h-7.7c-0.1,0-0.1,0-0.2,0c-3.8,0.3-6.8,0.3-9.1,0c-2.2-0.3-4-0.7-5.3-1.2c0,0-0.1,0-0.1-0.1
			c-1.9-0.6-3.5-1.1-4.7-1.4c-0.8-0.2-1.8,0-2.4,0.7c-1,1-1.2,2-1.2,2.7v3c-0.3,2.2-0.5,4.9-0.5,8.3c0,3.5,0.5,7.1,1.4,10.6
			c0.4,1.5,1.1,3.1,2.3,4.5c2.3,3.1,5.6,4.5,9.4,4.2c0.9,0,1.6-0.1,2.2-0.3c0,0,0.3-0.1,1.3-0.1c1.8,0,4.6-0.6,8.5-1.7
			c3.1-0.9,6.5-1.5,10.1-1.8c-0.9,0.8-1.7,1.5-2.6,2.3c-7.4,6.6-14.8,13.2-22,19.7c-3.9,3.5-7.7,7-11.3,10.3
			c-0.7-0.7-3.2-2.6-6.8,0.2l-2.7,1.8c0,0-0.1,0.1-0.1,0.1c-3.6,2.7-8.3,5.7-14,9.1c-5.7,3.4-11.3,6.4-16.7,8.9
			c-5.3,2.5-10,4.2-13.9,5c-2.4,0.5-3.3,0.3-3.6,0.2c-0.5-3.6,0.6-7.5,3.3-11.6c2.9-4.4,5.1-8.3,6.7-11.5c3.4-1.7,7.1-3.6,11.2-5.8
			c4.3-2.3,8.5-4.7,12.3-7.1c3.8-2.4,7.3-4.8,10.3-7.2c3.1-2.5,5.3-4.6,6.7-6.6c2.6-3.7,3.1-7.9,1.4-12.1c-1.5-3.7-3.7-7.1-6.5-10.1
			c-2.7-2.8-5.6-5.3-8.6-7.4c-3.8-2.5-4.7-3.3-4.9-3.5c-0.2-0.2-0.3-0.3-0.5-0.4c-3.7-2.2-7.9-4-12.2-5.6c-2.3-1-4.4-1.6-6.4-1.9
			c-0.8-0.1-1.6,0.1-2.2,0.7c-0.6,0.6-0.8,1.4-0.7,2.2c0.2,1.1,0.1,2.3-0.4,3.8c-1.2,3.7-3.5,8.4-7,13.9c-1.9,3-4.7,7.3-9.1,14
			c-4,6.1-7.9,12.8-11.8,19.9c-2.9,5.5-5.6,11.1-8,16.8c-1,0-2.1,0.3-3.5,0.7c-0.3,0.1-0.5,0.2-0.7,0.3c-0.7,0.5-1.4,0.8-2.1,1.1
			c-0.2,0.1-0.5,0.2-0.7,0.3c-2.1,1.5-4.2,3.1-6.2,4.6c-1.9,1.5-4,3-6.1,4.5c-0.1,0.1-0.2,0.2-0.3,0.3c-0.4,0.4-0.8,0.7-1.2,0.9
			c-0.2,0.1-0.5,0.3-0.7,0.5c-0.7,0.7-1.1,1-1.4,1.2c-0.5,0.1-0.9,0.3-1.2,0.6c-0.4,0.2-0.7,0.4-0.9,0.8c-0.4,0.1-0.8,0.3-1.4,0.6
			c-0.3,0.2-0.6,0.4-0.8,0.6c-0.5,0.2-0.9,0.5-1.4,0.9l-0.6,0.3c-0.2,0.1-0.3,0.2-0.4,0.3c-0.3,0.1-0.6,0.2-0.9,0.5
			c-0.1,0-0.3,0.1-0.4,0.1c0.9-3.3,2.6-8.1,4.9-14.2c3.2-8.2,7.4-17.7,12.5-28.1l5.5-10.9c1.9-3.7,3.7-7.7,5.5-11.8
			c5.5-11.1,10.1-20.3,13.7-27.3c3.7-7.1,6.6-12.8,8.9-17.2c2.5-4.7,4-7.7,5-9.5c1.1-1.9,1.8-3.3,2.4-4.2c1.9-3.1,2.2-6.7,0.7-10.4
			c0-0.1-0.1-0.1-0.1-0.2c-0.7-1.5-1.7-2.7-2.8-3.8c-0.1-0.1-0.2-0.2-0.3-0.3c-4.4-3.1-9.1-5.8-14.1-7.9c-2.7-1.3-5.4-2.1-8-2.5
			c-0.5-0.1-0.9,0-1.3,0.2c0.2-0.4,0.4-0.8,0.5-1.3c2.1-5.2,3.4-11.1,4.1-17.7c0.6-8.7,1-16.2,1.1-22.3c0.1-2.8,0.1-5.3,0.2-7.6
			c3.1,1.4,5.4,0.8,6.8,0c1.7-0.9,3-2.1,3.8-3.6c1.8-1.9,2.8-4,3-6.3c0.2-1.9,0.1-3.8-0.2-5.4c0-1.7-0.2-3.1-0.6-4.1
			c-0.3-0.8-0.6-1.5-1-2.2c-0.1-0.2-0.2-0.3-0.3-0.4c-0.1-0.3-0.2-0.5-0.3-0.7c-1.5-2.2-3.2-3.7-5.1-4.7c-1.5-0.7-2.9-1.4-4.1-2
			c-0.3-0.2-0.7-0.3-1.1-0.3c-1.7,0-3.4-0.1-5.1-0.4c-0.1,0-0.3,0-0.4,0c-1.5,0-3.2-0.1-5.1-0.2c-2.1-0.2-4.5-0.1-7.1,0.2
			c0,0-0.1,0-0.1,0c-6.4,1.1-10.5,3.7-12.2,7.9c-1.5,3.7-2.2,6.3-2.2,8.2c0,1.7,0.1,6.2,0.2,12.5c0.1,6.7,0,14.3-0.5,22.4
			c-0.4,8.1-1.5,16.2-3.1,24.1c-1.5,7.3-3.9,12.7-7.1,16l-2.5,1.7c-0.1,0.1-0.3,0.2-0.4,0.3c-0.2,0.1-0.5,0.2-0.8,0.2
			c-0.2,0-0.3,0-0.4-0.3c-0.1-0.2-0.3-0.4-0.5-0.5c-0.1-0.2-1.1-2.1,0-10.4c0.9-6.7,4.2-14.1,9.9-21.8c1.3-1.3,2-3,2-4.8
			c0-2.1-1.7-3.5-2.3-4c-1.6-1.3-3.9-1.5-7.2-0.7c0,0-0.1,0-0.1,0c-3.1,0.9-6.4,2.2-9.5,3.8c-0.1,0-0.1,0.1-0.2,0.1
			c-2.2,1.4-4.5,3.2-6.7,5.5c2.8-4.4,5.6-9,8.4-13.7c4.2-7,6.4-12.4,6.7-16.5c0.3-3.8,0-6.6-0.9-8.5c0-0.4-0.2-0.9-0.4-1.2
			c-0.7-1.1-1.7-2.1-2.8-3c-0.3-0.3-0.5-0.5-0.6-0.6c-0.2-0.4-0.4-0.8-0.8-1.1c-1.6-1.3-3.6-2.8-5.8-4.4c-2.3-1.7-4.8-3.3-7.5-4.9
			c-2.6-1.5-5.3-2.9-7.8-4c-2.6-1.1-4.7-1.8-6.4-2.2c-1.9-0.4-4.1,0.1-6.8,1.6c-1.8,1-3.7,2.2-5.8,3.4l-4.2-2.1
			c-0.1-0.1-0.2-0.1-0.3-0.1c-2.6-0.9-6.5-0.9-10.5,3.7c-2.5,2.9-4.7,6.2-6.6,9.6c-1.3,2-3,5.1-5.2,9.7c-2.1,4.5-4.6,10.5-7.4,17.8
			c-0.1,0.2-0.1,0.5-0.2,0.8c-0.3,0.4-0.5,0.9-0.5,1.4c-0.6,1.5-1.2,3.3-1.7,5.5c-0.6,2.2-1.2,4.2-1.8,6c0,0.1,0,0.1-0.1,0.2
			c-0.5,2.2-1.1,4.8-1.7,7.9c-0.6,0.2-1.3,0.6-1.9,1.1l-2.7,1.8c-2.2,1.6-4.3,3.1-6.2,4.6c-1.9,1.5-3.8,2.9-5.6,4.4
			c-0.5,0.3-1,0.6-1.5,1c-0.4,0.1-0.8,0.3-1.1,0.6c0,0-0.4,0.3-1.7,0.9c-0.4,0.2-0.8,0.6-1,1c-0.8,0.4-1.2,0.7-1.6,1
			c-0.1,0-0.2,0.1-0.6,0.3c-0.2,0.1-0.5,0.3-0.7,0.5c-0.2,0.2-0.3,0.2-0.3,0.2c-0.3,0.2-0.6,0.4-0.9,0.6c-0.3,0.1-0.5,0.2-0.7,0.4
			c-0.4,0.1-0.8,0.3-1.1,0.6c-0.1,0.1-0.3,0.1-0.4,0.2c-0.2,0-0.4,0.1-0.5,0.1c0.9-3.3,2.6-8.1,5.1-14.4c3.2-8.1,7.4-17.4,12.5-27.9
			c1.9-3.7,3.7-7.5,5.5-11.1c1.8-3.8,3.7-7.7,5.5-11.5c5.6-11.4,9.8-19.9,12.8-25.8c3-5.9,5.3-10.4,7-13.2c1.8-3,2.8-4.9,3.3-5.8
			c0.4-0.8,0.9-1.6,1.4-2.4c0,0,0-0.1,0.1-0.1c1.2-2,1.7-4,1.5-5.9c-0.2-1.6-0.7-3.2-1.4-4.7c-0.7-1.5-1.7-2.7-2.8-3.8
			c-0.1-0.1-0.2-0.2-0.3-0.3c-4.4-3.1-9.1-5.8-14.1-7.9c-2.7-1.3-5.4-2.1-8.1-2.5c-0.7-0.1-1.4,0.1-2,0.6c-0.5,0.5-0.8,1.2-0.8,1.9
			c0,1-0.1,2.4-0.4,4c-0.3,1.4-0.8,3.4-1.5,5.9c-0.7,2.4-1.9,5.2-3.7,8.4l-1.4,2.7c-1.5,3-3.3,6.6-5.3,10.9
			c-1.9,4.1-5.3,11.1-10.3,21.2c0,0.1,0,0.1-0.1,0.2c-0.6,1.5-1.2,2.8-1.7,3.9c-0.6,1.2-1.2,2.6-1.8,4.1c-1,1.7-2,3.4-2.8,5.1
			c-0.1-0.4-0.2-0.7-0.3-1.1c0-0.1-0.1-0.2-0.1-0.3c-0.7-1.3-1.3-2.5-2-3.4c-0.2-0.3-0.4-0.5-0.6-0.6c-2.2-1.6-4.5-3-6.8-4.4
			c-2.3-1.4-4.6-2.6-6.9-3.5c-2.7-1.3-5.4-2.1-8-2.5c-0.9-0.1-1.7,0.2-2.3,0.9c-1.1,1.4-2.3,2.7-3.5,3.9c-1.2,1.2-2.7,2.5-4.4,3.9
			c-0.9,0.8-1.9,1.6-2.9,2.4c-0.2-0.4-0.4-0.8-0.5-1.2c-0.1-0.3-0.3-0.5-0.5-0.7c-0.4-0.4-0.7-0.8-0.9-1.1c-0.2-0.4-0.5-0.7-0.8-0.9
			c-3.2-2.2-6.3-3.9-9.2-5c-2.7-1-5.3-1.9-7.8-2.5c-0.8-0.4-1.4-0.6-2-0.6c-0.1,0-0.2-0.1-0.4-0.2c-0.3-0.2-0.7-0.2-1.1-0.3
			c-0.7-0.5-1.6-0.6-2.4-0.3c-0.9,0.4-1.5,1.3-1.5,2.3c0,1.3-0.1,2.7-0.4,4.3c-0.6,1.6-1.3,3.5-2,6.1c-0.7,2.4-1.9,5.2-3.7,8.3
			c0,0.1-0.1,0.2-0.1,0.3c-0.6,1.5-1.1,2.6-1.5,3.4c-0.4,0.8-1.1,2-2,3.5c0,0,0,0.1-0.1,0.1c-7.9,14.4-14.4,27.4-19.5,38.6
			c-2.1,4.6-3.8,8.7-5,12.2l-0.2,0.2c-0.4,0.3-0.8,0.6-1.3,1c-3.5,2.5-6.6,4.6-9.2,6.2c-1.7,1-3.2,1.8-4.4,2.4
			c1-4.5,2.5-9.5,4.6-14.8c2.5-6.3,5.4-12.6,8.6-18.5c3.1-5.9,6.1-11.3,8.9-16c2.7-4.6,4.6-7.7,5.5-9.2c1.2-2,1.7-4,1.5-5.9
			c-0.2-1.6-0.7-3.2-1.4-4.7c-0.7-1.5-1.7-2.7-2.8-3.8c-0.1-0.1-0.2-0.2-0.3-0.2c-2.5-1.9-5-3.5-7.4-4.7c-2.4-1.2-4.7-2.3-6.8-3.3
			c0,0-0.1,0-0.1,0c-2.5-0.9-5-1.7-7.6-2.3c-0.7-0.2-1.5,0-2.1,0.5s-1,1.2-1,2v2.3c0,0.4,0,0.9-0.1,1.4c-1.7-1.8-3.5-3.3-5.5-4.5
			c-3.3-1.9-6.1-3.1-8.5-3.8c-2.7-1-4.9-1.5-6.7-1.5h-2.7c-1,0-1.9,0.6-2.3,1.5c-0.3,0.7-0.2,1.5,0.1,2.2c-0.6,1-1.2,2.1-1.8,3.3
			c-1,1.3-2,2.8-3.1,4.5c-0.3,0.5-1.5,2-4.9,6.4c-2.7,3.5-6,7.8-9.6,12.9c0.2-0.8,0.4-1.7,0.4-2.5c0-2-1.3-4.3-4.8-4.3
			c-1.1,0-2.1,0.3-3,0.9c-0.4,0.2-0.8,0.5-1.3,0.7l-1.8,0.9c-0.2,0.1-0.3,0.2-0.4,0.3c-8.9,7-19.2,15-30.6,23.7
			c-11.5,8.8-22.9,17.3-34,25.3c-11,7.9-21.4,14.7-30.6,20c-11.2,6.5-17,7.8-19.8,7.8c-6.1,0-10.4-2.7-13.3-8.4
			c-3.2-6.1-4.7-13.9-4.7-23.1c0-7.1,0.8-15,2.5-23.5c1.6-8.5,4.1-17.3,7.2-26.1c3.2-8.8,6.9-17.6,11.1-26.2
			c4.2-8.6,9-16.7,14.4-24.1c19.3-26.9,36.5-46.9,51.3-59.5c17.9-15.4,26.9-18.6,31.3-18.6c0.4,0,0.8-0.1,1.2-0.3
			c3.3-1.8,4.8-2.3,5.3-2.5c0.3-0.1,0.5-0.1,0.6-0.1c0.3,0.3,0.7,0.6,1.2,0.7c0.8,0.3,1.6,0.1,2.2-0.1c0.6,0,1.1,0.2,1.5,0.5
			l-2.2,40.2c-3.6,6.8-6.1,11.6-8.2,15.3c-2.2,4.1-4.2,7.5-5.9,10.3c-1.6,2.7-3.1,4.9-4.4,6.6c-1.3,1.7-2.5,3.3-3.8,4.8
			c-2.5,2.5-4.7,4.2-6.6,5.1c-2,1-3.8,1.8-5.2,2.4c-1.7,0.5-2.6,0.5-3.1,0.4c-1.1-0.3-2.3,0.3-2.8,1.3s-0.3,2.3,0.6,3.1
			c2,1.6,4,2.9,6,3.9c1.7,0.8,3.3,1.7,4.8,2.6c1.1,0.7,2.5,1.4,4.5,2l1.8,0.9c3.6,1.6,6.7,2.6,9.4,2.9c2.7,0.3,4.9,0.3,6.7,0
			c2.1-0.3,3.8-0.9,5.3-1.6c0.1-0.1,0.3-0.1,0.4-0.2c2.7-2,5.3-5.1,7.9-9.3c2.4-3.9,4.4-7.1,5.9-9.4c1.3-1.9,2.9-4.6,4.9-8.1
			c1.9-3.4,4-7.1,6.2-11.1c2.1-3.9,4.2-8,6.2-12.1c2-4.1,3.6-7.5,4.8-10.3l1.3-3.1c4.8-10.1,8.6-17.4,11.3-21.7
			c2.7-4.3,4.5-7.1,5.3-8.1c2.3-2.8,4.3-4.9,6.1-6.1c1.8-1.2,3.4-2.1,4.7-2.7c1.5-0.5,2.9-0.8,4.2-0.8c1.2,0,2.2-0.8,2.4-1.9
			c0.3-1.1-0.3-2.3-1.3-2.8l-5.5-2.7c-1.8-0.9-3.7-1.7-5.7-2.3c-0.7-0.3-1.4-0.6-2.1-0.9c-0.7-0.3-1.3-0.5-1.8-0.8
			c-0.1-0.1-0.2-0.1-0.3-0.1c-0.9-0.3-1.6-0.5-2.1-0.5c-3.5-1.2-6.5-1.9-9.1-2.1c-2.7-0.2-4.8-0.1-6.5,0.3c-2.2,0.4-4.1,1.1-5.7,2.3
			c-0.1,0.1-0.2,0.1-0.3,0.2c-2.3,2.3-4.7,5.5-7.2,9.8c-0.9,1.5-1.7,2.8-2.4,4.1c0.2-2.7,0.2-5.2,0.2-7.6c0-7.7-1.8-12.4-5.5-14.2
			c-3.1-1.5-7.5-2.3-13.5-2.3c-6.3,0-13.9,1.2-22.6,3.5c-8.7,2.3-18.7,7.1-29.5,14.1c-10.8,7-22.6,17.2-35.2,30.2
			c-12.5,13-26,30.5-40.1,52c-10.4,16.1-18.2,32.2-23.1,47.9c-4.9,15.7-7.4,30.7-7.4,44.4c0,17.6,3.8,32,11.2,42.6
			c7.6,10.9,18.5,16.5,32.4,16.5c6.3,0,14.6-3.1,25.5-9.4c10.4-6.1,21.6-13.3,33.3-21.6c11.7-8.3,23.5-17.2,35.1-26.3
			c11.6-9.2,21.3-17,29.3-23.3c0.2-0.2,0.4-0.4,0.6-0.5c-2.2,3.2-4.5,6.4-6.8,9.6c-4.1,5.8-7.9,11.7-11.5,17.3
			c-3.5,5.7-6.4,10.8-8.4,15.2c-2.2,4.9-3.1,8.5-2.7,11.1c0,0,0,0.1,0,0.1c0.6,3.5,1.6,6.5,2.7,9c1.1,2.4,2.4,4.4,3.7,6.1
			c1.4,2,3,3.7,5,5c1.3,1.2,2.8,1.8,4.4,1.9c3,0.7,6.2-0.6,9.8-3.8c0,0,0.1-0.1,0.1-0.1l5.3-5.2c2.2-2.2,4.7-4.6,7.5-7.2
			c2.7-2.5,5.5-5.2,8.3-8c0.5-0.5,1-1,1.4-1.4c0,2,0.2,3.9,0.8,5.6c0.3,2.2,0.8,4.3,1.4,6.5c0,0,0,0.1,0,0.1c0.6,1.7,1.2,3.7,1.8,6
			c0.7,2.6,1.9,4.8,3.7,6.6c0.9,1.3,2.3,2.2,4,2.6c0.6,0.2,1.2,0.3,1.9,0.3c0.9,0,2-0.2,3.1-0.5c1.8-0.5,4-1.8,6.7-3.8
			c1.3-1,3.4-2.7,6.3-5.1c2.8-2.3,6-4.9,9.8-7.9c1.7-1.4,3.5-2.8,5.4-4.3c0.1,0.4,0.1,0.8,0.2,1.2c0.3,1.5,0.7,3.3,1.1,5.5
			c0.5,2.4,1.5,4.5,2.9,6.3c0.4,0.8,1,1.5,1.7,2.2c0.6,0.6,0.9,1,1.1,1.2c0.5,0.7,1.2,1.3,2,1.8c1.3,0.9,2.9,0.8,4.1-0.3l0.9-0.9
			c0.4-0.4,1-1.1,1.7-2.2c0.1-0.1,0.1-0.2,0.2-0.3c0.6-1.3,1-2,1.1-2.6c2.1-4.2,4.7-9.2,7.8-15c2.2-4.1,4.6-8.5,7.1-12.9
			c0.4,2.2,0.8,4.4,1.2,6.8c0.9,4.9,2.3,10.3,4.2,16.1c0,0.1,0.1,0.2,0.1,0.4c0.6,1.1,1.1,2.3,1.5,3.4c0.5,1.3,1,2.5,1.6,3.7
			c0.4,1.2,1.5,2.6,3.9,3.2c1.4,0.4,3.1,0.4,5.2-0.2c2-0.5,4.2-1.8,6.9-3.7c1.6-1,3.9-2.5,7-4.8c3-2.3,6.5-4.8,10.3-7.7
			c0.4-0.3,0.8-0.6,1.2-0.9c0.2,0.8,0.4,1.7,0.7,2.5c0,0,0,0.1,0,0.1c0.6,1.7,1.2,3.7,1.8,6c0.7,2.7,2,5,3.9,6.8l0.9,0.9
			c1.1,1.1,2.6,1.6,4.5,1.6c2.7,0,5.9-1.3,10.1-4c0.1-0.1,0.3-0.2,0.4-0.3l0.8-0.8c2.5-1.9,6.2-4.7,10.9-8.6
			c4.7-3.8,9.9-8,15.5-12.6c2.2-1.5,4.3-3.3,6.3-5.1c0.7-0.6,1.3-1.2,2-1.8v3.6c0,0.2,0,0.3,0,0.5c0.7,3.2,1.4,6.7,2.3,10.5
			c1,4.3,2.9,8.1,5.5,11.4c3.2,3.9,7.6,5.9,12.9,5.9c0.1,0,0.2,0,0.3,0c6.1-0.7,12.6-4.5,19.8-11.6c6.8-6.7,13.2-14.1,19-22
			c2.1-2.8,4.1-5.7,6.2-8.8c-0.6,1.4-1.1,2.9-1.6,4.6c-1,2.9-1.5,5.8-1.5,8.7c-0.3,2.6-0.2,5.3,0.3,8.1c0.5,2.9,1.6,5.7,3.3,8.3
			c3.7,6.4,9.9,10.4,18.4,11.8c1.9,0.3,3.8,0.5,5.7,0.5c6.2,0,11.9-1.9,17.1-5.7c0.1-0.1,0.2-0.1,0.3-0.2c0.9-0.9,2.4-2.3,4.7-4.5
			c2.4-2.2,4.9-5.2,7.5-9c1.7-2.5,3.3-5.4,4.8-8.6c-0.1,1-0.2,2.1-0.4,3.3c-0.3,1.4-0.8,3.3-1.5,5.6c-0.7,2.2-2,5-3.7,8.2
			c-0.9,1.7-1.7,3.2-2.4,4.3c-0.8,1.3-2,3.3-3.5,6c-1.6,2.8-3.7,6.9-6.2,12.4c-2.6,5.4-6.1,12.9-10.7,23l-2.5,5
			c-1.8-2.1-3.9-3.8-6.1-5.1c-3.2-1.8-6-3.1-8.3-3.8c-1.5-0.7-3-1.1-4.3-1.1c-1,0-1.3-0.2-1.4-0.2c-0.3-0.2-0.7-0.3-1.1-0.3
			c-1.2,0-1.6-0.2-1.6-0.2c-1.1-0.5-2.4-0.2-3.1,0.8c-0.6,0.8-0.6,2-0.1,2.8c0,0.1-0.1,0.2-0.1,0.3l-1.7,3.4c-1,1.3-2,2.8-3.1,4.4
			c-0.4,0.5-1.5,2-4.9,6.4c-2.7,3.5-6,7.8-9.7,13c-3.9,5.5-7.8,11-11.7,16.5c-4.1,5.9-8,11.7-11.5,17.3c-0.8,1.3-1.7,2.7-2.5,4.2
			l-1.8,1.2c0,0-0.1,0.1-0.1,0.1c-3.6,2.7-7.3,5.3-10.9,7.6c-2.4,1.6-4.6,3.1-6.6,4.4l-3,2c-1.9,1.3-3.5,2.2-4.8,2.8
			c1.2-4.7,3.1-9.8,5.7-15.3c3-6.4,6.2-12.7,9.5-18.6c3.3-5.9,6.5-11.3,9.5-15.9c3.3-5.1,5.1-7.9,6-9.4c1.9-3.3,2.2-6.8,1.1-10.2
			c0-0.1-0.1-0.2-0.1-0.3c-0.7-1.5-1.7-2.7-2.8-3.8c-0.1-0.1-0.2-0.2-0.3-0.3c-2.2-1.6-4.5-3-6.8-4.4c-2.3-1.4-4.6-2.6-6.9-3.5
			c-2.7-1.3-5.4-2.1-8-2.5c-0.6-0.1-1.1,0.1-1.6,0.4c-2.4,1.5-4.8,2.8-7.1,4c0,0-0.1,0-0.1,0.1c-2.2,1.2-4.4,2.6-6.8,4.2
			c-1.3,0.9-2.6,1.8-3.8,2.8c-0.2-0.5-0.4-0.9-0.6-1.4c-0.1-0.2-0.3-0.5-0.5-0.7l-1.8-1.8c-0.1-0.1-0.2-0.2-0.3-0.3
			c-3.2-2.2-6.4-4-9.6-5.2c-3.1-1.2-5.8-2.2-8-2.8c-0.4-0.1-0.9-0.1-1.1-0.1c-0.6-0.3-1.4-0.4-2.3-0.4c-0.7-0.5-1.6-0.6-2.4-0.3
			c-0.9,0.4-1.6,1.3-1.6,2.3c0,1.4-0.1,2.8-0.4,4.6c-0.6,3.4-2.1,8.2-4.4,14.3c-0.6,1.2-1.1,2.3-1.6,3.4c-0.5,1.1-1,2.4-1.6,3.8
			c-6.3,14.3-11.7,27.2-16,38.4c-1.4,3.7-2.6,7.1-3.5,10.1c-0.2,0.2-0.5,0.4-0.7,0.5c-3.5,2.5-6.6,4.6-9.2,6.2
			c-1.7,1-3.2,1.8-4.4,2.4c1-4.5,2.5-9.5,4.6-14.8c2.5-6.3,5.4-12.6,8.6-18.5c3.2-5.9,6.1-11.3,8.9-16c2.7-4.6,4.5-7.7,5.5-9.2
			c1.2-2,1.7-4,1.5-5.9c-0.2-1.6-0.7-3.2-1.4-4.7c-0.7-1.4-1.7-2.7-2.8-3.8c-0.1-0.1-0.2-0.2-0.3-0.2c-2.5-1.9-5-3.5-7.4-4.7
			c-2.4-1.2-4.6-2.3-6.8-3.3c0,0-0.1,0-0.1,0c-2.5-0.9-5-1.7-7.6-2.3c-0.7-0.2-1.5,0-2.1,0.5c-0.6,0.5-1,1.2-1,2v2.3
			c0,0.4,0,0.9-0.1,1.4c-1.7-1.8-3.5-3.3-5.5-4.5c-3.3-1.9-6.1-3.1-8.4-3.8c-2.7-1-4.9-1.5-6.7-1.5h-2.7c-1,0-1.9,0.6-2.3,1.5
			c-0.3,0.7-0.2,1.5,0.1,2.2c-0.6,1-1.2,2.1-1.8,3.3c-1,1.3-2,2.8-3.1,4.4c-0.3,0.4-1.4,1.9-4.9,6.4c-2.8,3.5-6,7.9-9.7,13
			c-3.9,5.5-7.8,11.1-11.7,16.5c-4.1,5.8-7.9,11.6-11.5,17.3c-0.3,0.6-0.7,1.1-1,1.6l-0.1,0.2l-0.3,0.2c0,0-0.1,0.1-0.1,0.1
			c-3.6,2.7-7.3,5.3-10.9,7.6c-2.4,1.6-4.6,3-6.6,4.4l-3,2c-1.9,1.3-3.5,2.2-4.8,2.8c1.2-4.7,3.1-9.8,5.7-15.3
			c3-6.4,6.2-12.7,9.5-18.6c3.3-5.9,6.5-11.3,9.5-15.9c3.3-5.1,5.1-7.9,6-9.4c1.9-3.4,2.2-6.8,1.1-10.2c0-0.1-0.1-0.2-0.1-0.3
			c-0.7-1.5-1.7-2.7-2.8-3.8c-0.1-0.1-0.2-0.2-0.3-0.3c-2.2-1.6-4.5-3-6.8-4.4c-2.3-1.4-4.6-2.6-6.9-3.5c-2.7-1.3-5.4-2.1-8-2.5
			c-0.6-0.1-1.1,0.1-1.6,0.4c-2.4,1.5-4.8,2.8-7.1,4c0,0-0.1,0-0.1,0.1c-2.1,1.2-4.4,2.6-6.8,4.2c-1.3,0.9-2.6,1.8-3.8,2.8
			c-0.2-0.5-0.4-0.9-0.6-1.4c-0.1-0.2-0.3-0.5-0.5-0.7l-1.8-1.8c-0.1-0.1-0.2-0.2-0.3-0.3c-3.2-2.2-6.4-4-9.6-5.2
			c-3.1-1.2-5.8-2.2-8-2.8c-0.4-0.1-0.9-0.1-1.1-0.1c-0.6-0.3-1.4-0.4-2.3-0.4c-0.7-0.5-1.6-0.6-2.4-0.3c-0.9,0.4-1.5,1.3-1.5,2.3
			c0,1.4-0.1,2.9-0.4,4.6c-0.6,3.4-2.1,8.3-4.4,14.3c-0.6,1.1-1.1,2.2-1.6,3.4c-0.5,1.1-1,2.4-1.6,3.8c-6.3,14.3-11.7,27.2-16,38.4
			c-1.7,4.3-3,8.2-4,11.6c-2,1.4-4,2.7-6,4c-4.6,3.1-8.1,5.3-10.8,6.8c-2.1,0.6-2.8,0.4-2.8,0.4c-1.1-0.4-2.2-1.5-3.1-3.5
			c-1.1-2.4-2-5-2.5-7.8c-0.6-2.9-1-5.8-1.3-8.6c-0.2-2.2-0.4-4-0.4-5.4c9.6-2.5,17.9-7.1,24.6-13.6c6.6-6.4,11.7-11.8,15.1-16.1
			c0-0.1,0.1-0.1,0.1-0.2c0.5-0.8,1-1.5,1.5-2.1c0.5-0.7,1-1.4,1.4-2.1c1.9-3.3,2.2-6.7,1.1-10.1c0-0.1-0.1-0.2-0.1-0.3
			c-0.7-1.3-1.3-2.5-2-3.4c-0.2-0.3-0.4-0.5-0.6-0.6c-2.2-1.6-4.5-3-6.8-4.4c-2.3-1.4-4.6-2.6-6.9-3.5c-2.7-1.3-5.4-2.1-8-2.5
			c-0.9-0.1-1.7,0.2-2.3,0.9c-1.1,1.4-2.3,2.7-3.5,3.9c-1.2,1.2-2.7,2.5-4.4,3.9c-0.9,0.8-1.9,1.6-2.9,2.4c-0.2-0.4-0.4-0.8-0.5-1.2
			c-0.1-0.3-0.3-0.5-0.5-0.7c-0.4-0.4-0.7-0.8-0.9-1.1c-0.2-0.4-0.5-0.7-0.8-0.9c-3.2-2.2-6.3-3.9-9.2-5c-2.7-1-5.3-1.9-7.8-2.5
			c-0.8-0.4-1.4-0.6-2-0.6c-0.1,0-0.2-0.1-0.4-0.2c-0.3-0.2-0.7-0.2-1.1-0.3c-0.7-0.5-1.6-0.6-2.4-0.3c-0.9,0.4-1.5,1.3-1.5,2.3
			c0,1.3-0.1,2.7-0.4,4.3c-0.6,1.6-1.3,3.5-2,6.1c-0.7,2.4-2,5.2-3.7,8.3c0,0.1-0.1,0.2-0.1,0.3c-0.6,1.5-1.1,2.6-1.5,3.4
			c-0.4,0.9-1.1,2-2,3.5c0,0,0,0.1-0.1,0.1c-7.9,14.4-14.5,27.4-19.5,38.6c-0.3,0.8-0.7,1.5-1,2.2c-2.9,2-6.4,4.2-10.2,6.5
			c-5.7,3.4-11.3,6.4-16.7,8.9c-5.3,2.5-9.9,4.2-13.9,5c-2.4,0.5-3.3,0.3-3.6,0.2c-0.5-3.6,0.6-7.5,3.3-11.6
			c2.9-4.4,5.1-8.3,6.7-11.5c3.4-1.7,7.1-3.6,11.2-5.8c4.3-2.3,8.5-4.7,12.3-7.1c3.8-2.4,7.3-4.8,10.3-7.2c3.1-2.5,5.3-4.6,6.7-6.6
			c2.6-3.7,3.1-7.9,1.4-12.1c-1.5-3.7-3.7-7.1-6.5-10.1c-2.7-2.8-5.6-5.3-8.6-7.4c-3.7-2.5-4.7-3.3-4.9-3.5
			c-0.2-0.2-0.3-0.3-0.5-0.4c-3.7-2.2-7.9-4-12.2-5.6c-2.3-1-4.4-1.6-6.4-1.9c-0.8-0.1-1.6,0.1-2.2,0.7s-0.8,1.4-0.7,2.2
			c0.2,1.1,0.1,2.3-0.4,3.8c-1.1,3.7-3.5,8.4-7,13.9c-2,3-4.8,7.4-9.1,14c-4,6.1-8,12.8-11.8,19.9c-3.8,7.2-7.2,14.4-10,21.6
			c-2.9,7.4-4.1,13.8-3.8,18.9c0,0.1,0,0.1,0,0.2c0.3,2.2,0.8,4.5,1.4,6.7c0,0,0,0.1,0,0.1c0.6,1.8,1.3,3.8,2.1,5.9
			c0.8,2.3,1.9,4.3,3.2,6c0.6,1,1.6,1.8,3,2.3c0.8,0.4,1.8,0.6,3.1,0.8c0.3,0,0.7,0.1,1,0.1c1.2,0,2.6-0.3,4.1-0.9
			c0.5-0.2,0.9-0.5,1.2-0.9c12.2-5.1,24.1-11,35.5-17.8c5.3-3.1,10.6-6.5,15.8-10c-0.3,1.5-0.5,2.7-0.5,3.8c0,0.1,0,0.2,0,0.4
			c0.3,2.1,0.6,4.1,0.9,6c0.3,1.5,0.7,3.3,1.1,5.5c0.5,2.4,1.5,4.5,2.9,6.3c0.4,0.8,1,1.5,1.7,2.2c0.6,0.6,0.9,1,1,1.2
			c0.5,0.7,1.2,1.3,2,1.8c1.3,0.9,2.9,0.8,4.1-0.3l0.9-0.9c0.4-0.4,1-1.1,1.7-2.2c0.1-0.1,0.1-0.2,0.2-0.3c0.7-1.3,1-2,1.1-2.6
			c2.1-4.2,4.8-9.3,7.8-15c2.2-4.1,4.6-8.5,7.2-12.9c0.4,2.2,0.8,4.4,1.2,6.8c0.9,4.9,2.3,10.3,4.2,16.1c0,0.1,0.1,0.2,0.1,0.4
			c0.6,1.1,1.1,2.3,1.5,3.4c0.5,1.3,1,2.5,1.6,3.7c0.4,1.2,1.5,2.6,3.9,3.2c1.4,0.4,3.1,0.4,5.2-0.2c2-0.5,4.2-1.8,6.9-3.7
			c1.6-1,3.9-2.5,7-4.8c3-2.3,6.5-4.8,10.3-7.7c2.9-2.2,5.9-4.5,9.2-7.1c0.3,1.3,0.6,2.6,1,3.8c0,0,0,0.1,0.1,0.1c0.5,1.4,1,3,1.5,5
			c0.5,2.4,1.5,4.5,2.9,6.3c0.4,0.8,1,1.5,1.7,2.2c0.4,0.4,0.7,0.7,1.1,1l0.5,0.5c0.6,0.6,1.2,1.1,2,1.5c1.2,0.9,2.9,0.8,4.1-0.3
			c0.3-0.3,0.6-0.6,0.9-0.9c0.4-0.4,0.9-1.1,1.7-2.2c0.3-0.4,0.4-0.9,0.4-1.4c0-0.3,0.1-0.4,0.2-0.5c0.2-0.2,0.4-0.5,0.5-0.7
			l6.9-14.7c2.6-5.5,5.3-11.5,8.5-18.4c2.8-6.1,5.6-12.2,8.4-18.1c2.7-5.7,5.1-10.8,6.9-15.1c0.6-1.5,1.2-2.8,1.7-3.9l1.6-3.1
			c2.3-1.7,5.6-3.8,9.6-6.3c0.9-0.6,1.9-1.1,2.7-1.7c-1.5,2.6-3.3,5.7-5.5,9.3c-3.4,5.6-6.7,11.7-9.9,18c-3.3,6.4-6,13-8.1,19.3
			c-2.2,6.6-3,12.6-2.4,17.7c0,2.3,0.4,4.6,1,7c0.6,1.7,1.2,3.7,1.8,6c0.7,2.4,1.7,4.6,3,6.3c0.5,1.1,1.6,2.4,3.8,3
			c1.4,0.4,3.1,0.4,5.2-0.2c2-0.5,4.2-1.8,6.9-3.7c1.6-1,3.8-2.6,6.8-4.9c2.8-2.2,6.1-4.7,10-7.7c2.6-2,5.4-4.2,8.4-6.5
			c-0.2,1.3-0.3,2.4-0.1,3.4c0,0,0,0.1,0,0.1c0.7,3.6,1.5,6.5,2.7,9c1.1,2.4,2.4,4.4,3.7,6.1c1.4,2,3,3.7,5,5
			c1.3,1.2,2.8,1.8,4.4,1.9c2.9,0.7,6.2-0.6,9.8-3.8c0,0,0.1-0.1,0.1-0.1l5.3-5.2c2.2-2.2,4.7-4.6,7.5-7.2c2.6-2.5,5.4-5.1,8.3-8
			c0.5-0.5,1-1,1.4-1.4c0,2,0.2,3.9,0.8,5.6c0.3,2.2,0.8,4.3,1.4,6.5c0,0,0,0.1,0,0.1c0.6,1.7,1.2,3.7,1.8,6
			c0.7,2.6,1.9,4.8,3.7,6.6c0.9,1.3,2.3,2.2,4,2.6c1.4,0.4,3.1,0.4,5.1-0.2c1.8-0.5,4-1.8,6.7-3.8c1.3-1,3.4-2.7,6.3-5.1
			c2.8-2.3,6-4.9,9.8-7.9c1.6-1.2,3.2-2.6,4.9-3.9c0.3,1.4,0.6,2.7,1,3.9c0,0,0,0.1,0.1,0.1c0.5,1.4,1,3,1.5,5
			c0.5,2.4,1.5,4.5,2.9,6.3c0.4,0.8,1,1.5,1.7,2.2c0.5,0.5,0.9,0.9,1.3,1.3l0.3,0.3c0.6,0.6,1.2,1,2,1.5c1.2,0.9,2.9,0.8,4.1-0.4
			c0.3-0.3,0.6-0.6,0.9-0.9c0.3-0.3,0.7-0.8,1.7-2.2c0.3-0.4,0.4-0.9,0.4-1.4c0-0.3,0.1-0.4,0.2-0.5c0.2-0.2,0.4-0.4,0.5-0.7
			c1.8-3.8,4-8.5,6.6-14.1l0.3-0.6c2.6-5.6,5.4-11.6,8.5-18.4c2.8-6.1,5.6-12.2,8.4-18.1c2.7-5.7,5.1-10.8,6.9-15.1
			c0.6-1.5,1.2-2.8,1.7-3.9l1.6-3.1c2.3-1.7,5.6-3.8,9.6-6.3c0.9-0.6,1.9-1.1,2.7-1.7c-1.5,2.6-3.3,5.7-5.5,9.3
			c-3.4,5.6-6.7,11.7-9.9,18c-3.3,6.4-6,13-8.1,19.3c-2.2,6.6-3,12.6-2.4,17.7c0,2.3,0.4,4.6,1,6.9c0,0,0,0.1,0,0.1
			c0.6,1.7,1.2,3.7,1.8,6c0.7,2.4,1.7,4.6,3,6.3c0.5,1.1,1.6,2.4,3.8,3c1.4,0.4,3.1,0.4,5.2-0.2c2-0.5,4.2-1.8,6.9-3.7
			c1.6-1,3.8-2.6,6.8-4.9c2.8-2.2,6.1-4.7,10-7.7c3.4-2.6,7.2-5.5,11.1-8.7c-0.1,0.8-0.1,1.6,0,2.3c0,0,0,0.1,0,0.1
			c0.7,3.2,1.6,6.1,2.7,8.5c1.1,2.4,2.4,4.4,3.7,6.1c1.3,2,3,3.8,4.9,5.4c1.3,1.2,2.8,1.9,4.5,2c2.9,0.7,6.2-0.6,9.8-3.8
			c0,0,0.1-0.1,0.1-0.1l23.4-23.2c-0.5,2.7-0.7,4.8-0.7,6.5c0,0.1,0,0.2,0,0.3c0.3,2.2,0.8,4.5,1.4,6.7c0,0,0,0.1,0,0.1
			c0.6,1.8,1.3,3.8,2.1,5.9c0.9,2.5,2.2,4.6,4,6.4l0.9,0.9c1.1,1.1,2.6,1.6,4.5,1.6c1.2,0,2.6-0.3,4.2-0.8c1.5-0.5,3.2-1.4,5.3-2.8
			c0.9-0.1,1.6-0.7,1.9-1.5c0.1-0.1,0.1-0.1,0.2-0.2c2.5-1.6,6-4.2,10.5-7.9c4.9-3.9,10.1-8.3,15.5-13.1c2.1-1.5,4.2-3.1,6.2-4.8
			c0.2-0.2,0.4-0.3,0.6-0.5c-0.7,3.3-1,6.3-0.8,9c0,0.1,0,0.1,0,0.2c0.3,2.2,0.8,4.5,1.4,6.7c0,0,0,0.1,0,0.1
			c0.6,1.8,1.3,3.8,2.1,5.9c0.8,2.3,1.9,4.3,3.2,6c0.6,1,1.6,1.8,3,2.3c0.8,0.4,1.8,0.7,3.1,0.8c1.5,0.2,3.2-0.1,5.1-0.8
			c0.5-0.2,0.9-0.5,1.2-0.9c12.2-5.1,24.1-11,35.5-17.8c5.5-3.3,10.8-6.6,16-10.2c-0.3,1.9-0.6,3.8-0.9,5.7
			c-0.3,1.9-0.5,3.8-0.7,5.9c-0.2,2.2,0.1,4.4,0.7,6.8c0.1,0.6,0.3,1.2,0.7,2c0.1,0.2,0.2,0.4,0.2,0.4c0.1,0.9,0.5,1.7,1.1,2.4
			c0.4,1.2,1.6,2.6,5.1,2.6c9.9-0.3,20.3-0.5,31-0.5h29.7c2.8,0,4.1-0.3,5-1.2c1-1,1.2-2,1.2-2.7c0-0.9-0.2-1.9-0.6-3
			c-0.3-0.8-0.7-1.5-1-2.2l-0.9-1.8c-0.1-0.1-0.1-0.3-0.2-0.4c-2.8-3.7-5.6-6.7-8.1-9c0,0-0.1-0.1-0.1-0.1c-1.6-1.3-3.4-2.5-5.2-3.7
			c0,0-0.1,0-0.1-0.1c-2.1-1.2-5.8-1.5-12-1c-3.4,0.3-6.9,0.3-10.4,0.2c2.9-2.4,5.8-4.8,9-7.3c4.7-3.8,9.6-7.8,14.4-11.8
			c4.7-3.9,9-7.5,12.8-10.9c3.8-3.3,6.7-5.9,8.5-7.8c3.3-3,5.9-5.5,7.7-7.4c1.6-1.7,2.9-2.9,4-3.8c0.1-0.1,0.2-0.1,0.3-0.2l2.7-2.7
			c1.4-1.4,2.2-2.4,2.7-3.2C1018.9,591.7,1019.2,590.1,1019,588.5z M780.9,449.3c0.3-1,0.7-2.1,1.2-3.1c1.2-2.3,1.6-4.5,1.1-6.4
			c-0.1-0.5-0.3-1-0.4-1.5c0.7,0.5,1.4,1.1,2,1.7c0.7,0.9,1.2,2.1,1.5,3.5c0.2,0.9,0.3,2.8-0.7,6.4c-0.9,3.1-3.3,8.6-7.3,16.3
			c-4,7.7-8.5,15.7-13.4,23.6c-4.5,7.5-8.8,14.1-12.6,19.8c3.4-7,6.8-14.1,10.2-21.3c4.5-9.6,8.2-17.6,11-24l7.3-14.4
			C780.8,449.7,780.9,449.5,780.9,449.3z M674.5,503c-3.3,2.2-6,3.8-8,5c-2.1,0.6-2.8,0.4-2.8,0.4c-1.1-0.4-2.2-1.5-3.1-3.5
			c-1.1-2.4-2-5-2.5-7.8c-0.6-2.9-1-5.8-1.3-8.6c-0.2-2.2-0.4-4-0.4-5.4c9.6-2.5,17.9-7.1,24.6-13.6c4.6-4.4,8.4-8.4,11.5-11.9
			c-5.1,11.3-9.5,21.8-13.1,31.1C677.1,494.4,675.5,499.1,674.5,503z M657.4,455.6c-0.5,0.6-1.1,1.3-1.7,1.9l0.4-0.9
			C656.6,456.3,657,455.9,657.4,455.6z M569.6,468.2c-0.3,0.5-0.6,1-0.8,1.5c-1.9,3.5-3.7,6.8-5.3,10c-1.6,3.2-2.9,6.1-3.8,8.8
			l-7.1,7.1c-2.8,2.8-5.6,5.4-8.2,7.9c-0.7,0.7-1.5,1.4-2.2,2c0.1-0.1,0.2-0.3,0.3-0.4c2.1-3.1,4.7-6.7,7.7-10.8
			c3.1-4.2,6.4-8.6,9.6-13.2c3.3-4.6,6.5-8.8,9.5-12.6C569.4,468.5,569.5,468.3,569.6,468.2z M864.1,446.3c0-3.1,0.2-4.6,0.4-5.3
			c0-0.1,0-0.2,0.1-0.3c0.1-0.8,0.2-1.2,0.3-1.4c0.1,0.2,0.4,0.6,0.7,1.7c0,0.1,0.1,0.2,0.1,0.3c0.4,0.9,0.5,1.7,0.4,2.2
			c-0.3,0.9-0.7,1.9-1.2,3c-0.2,0.5-0.5,0.9-0.8,1.4C864.1,447.3,864.1,446.8,864.1,446.3z M810.7,606.4c-2.8,6.1-5.3,12.1-7.6,18
			l-6.5,6.4c-2.9,2.9-6.2,6-9.6,9.2c-1.7,1.6-3.4,3.2-4.9,4.6c1-1.4,2.1-3.1,3.4-5c4.1-5.9,8.6-12,13.2-18.3
			C803,615.6,807,610.6,810.7,606.4z M628.2,607.6c-0.3,0.5-0.6,1-0.8,1.5c-1.9,3.5-3.7,6.8-5.3,10c-1.6,3.2-2.9,6.1-3.8,8.8
			l-7.1,7.1c-2.8,2.8-5.6,5.4-8.2,7.9c-0.7,0.7-1.5,1.4-2.2,2c0.1-0.1,0.2-0.3,0.3-0.4c2.1-3.1,4.7-6.7,7.7-10.8
			c3.1-4.1,6.3-8.6,9.6-13.2c3.3-4.6,6.5-8.8,9.5-12.6C628,607.9,628.1,607.7,628.2,607.6z M454.3,598c-0.5,0.6-1.1,1.3-1.7,2
			c0.1-0.3,0.3-0.6,0.4-0.9C453.5,598.7,453.9,598.4,454.3,598z M378.6,611.6c3.4-5.3,6.5-10,9.3-14c0.8,0.8,1.5,1.6,1.9,2.3
			c0.6,1,0.4,1.6,0.1,2.2c-0.1,0.2-0.2,0.4-0.3,0.7c-0.2,1-1.4,3.1-6.2,5.9C381.8,609.7,380.2,610.6,378.6,611.6z M904.3,608.2
			c3.4-5.3,6.5-10,9.3-14c0.8,0.8,1.5,1.6,1.9,2.3c0.6,1,0.4,1.6,0.1,2.3c-0.1,0.2-0.2,0.4-0.3,0.7c-0.2,1-1.4,3.1-6.2,5.9
			C907.5,606.3,905.9,607.3,904.3,608.2z"/>
	</g>
	<g>
		<path class="st1" d="M411.4,540.6c-13.1,0-23.2-5.1-30.4-15.4c-7.2-10.3-10.7-24-10.7-41.2c0-13.6,2.4-28.1,7.3-43.7
			c4.9-15.5,12.5-31.3,22.9-47.3c14-21.4,27.3-38.6,39.8-51.6c12.5-13,24.1-22.9,34.7-29.9c10.7-6.9,20.3-11.5,28.8-13.8
			c8.5-2.3,15.8-3.4,21.9-3.4c5.5,0,9.6,0.7,12.3,2c2.7,1.4,4.1,5.4,4.1,12c0,5.7-0.5,12.2-1.4,19.5l2.3-4.5
			c1.5-2.7,3.5-6.1,5.9-10.2c2.4-4.1,4.7-7.2,6.9-9.3c1.2-0.9,2.7-1.5,4.6-1.8c1.5-0.3,3.5-0.4,5.9-0.2c2.4,0.2,5.3,0.8,8.7,2
			c0.3,0,0.9,0.2,1.8,0.5c0.6,0.3,1.3,0.6,2.1,0.9c0.8,0.3,1.4,0.6,2.1,0.9c1.8,0.6,3.7,1.4,5.5,2.3c1.8,0.9,3.7,1.8,5.5,2.7
			c-1.5,0-3.2,0.3-5,0.9c-1.5,0.6-3.3,1.6-5.3,2.9c-2,1.4-4.2,3.5-6.6,6.6c-0.9,1.2-2.7,4-5.5,8.4c-2.7,4.4-6.6,11.7-11.4,22
			l-1.4,3.2c-1.2,2.7-2.8,6.1-4.8,10.2c-2,4.1-4,8.1-6.2,12c-2.1,3.9-4.2,7.6-6.2,11.1c-2,3.5-3.6,6.1-4.8,7.9
			c-1.5,2.4-3.5,5.6-5.9,9.5c-2.4,3.9-4.9,6.8-7.3,8.6c-1.2,0.6-2.7,1.1-4.6,1.4c-1.5,0.3-3.5,0.3-5.9,0c-2.4-0.3-5.3-1.2-8.7-2.7
			l-1.8-0.9c-1.8-0.6-3.2-1.2-4.1-1.8c-1.5-0.9-3.2-1.8-5-2.7c-1.8-0.9-3.7-2.1-5.5-3.6c1.2,0.3,2.7,0.2,4.6-0.5
			c1.5-0.6,3.4-1.4,5.5-2.5c2.1-1.1,4.6-2.9,7.3-5.7c1.2-1.5,2.5-3.2,3.9-5c1.4-1.8,2.9-4.1,4.6-6.8c1.7-2.7,3.7-6.2,5.9-10.4
			c2.3-4.2,5.1-9.5,8.5-15.8l2.3-42.1c-1.2-1.2-2.7-1.8-4.6-1.8c-0.6,0.3-1,0.3-1.1,0c-0.2-0.3-0.4-0.5-0.7-0.7
			c-0.3-0.1-1.1-0.1-2.3,0.2c-1.2,0.3-3.2,1.2-5.9,2.7c-7,0-18,6.4-32.9,19.2c-14.9,12.8-32.2,32.8-51.7,60
			c-5.5,7.5-10.4,15.7-14.6,24.4c-4.3,8.8-8,17.6-11.2,26.5c-3.2,8.9-5.6,17.7-7.3,26.5c-1.7,8.8-2.5,16.7-2.5,24
			c0,9.7,1.7,17.7,5,24.2c3.3,6.5,8.5,9.7,15.5,9.7c4.6,0,11.6-2.7,21-8.1c9.4-5.4,19.7-12.2,30.9-20.1c11.1-8,22.5-16.4,34.1-25.3
			c11.6-8.9,21.8-16.8,30.6-23.8l1.8-0.9c0.6-0.3,1.1-0.6,1.6-0.9c0.5-0.3,1-0.5,1.6-0.5c1.5,0,2.3,0.6,2.3,1.8c0,2.7-1.7,5.4-5,8.1
			c-7.9,6.3-17.7,14.1-29.3,23.3c-11.6,9.2-23.2,18-35,26.3c-11.7,8.3-22.8,15.5-33.1,21.5C425.3,537.6,417.2,540.6,411.4,540.6z"/>
		<path class="st1" d="M611.2,496.7c0.9-0.3,1.8-0.7,2.7-1.4c2.1-0.6,3.4-0.7,3.7-0.5c1.2,1.2,0.5,3.2-2.3,5.9
			c-3.7,3.3-7.5,6.6-11.7,10c-4.1,3.3-8,6.4-11.7,9.3c-3.7,2.9-6.9,5.5-9.8,7.9c-2.9,2.4-5,4.1-6.2,5c-2.4,1.8-4.4,2.9-5.9,3.4
			c-1.5,0.5-2.7,0.5-3.7,0.2c-1.2-0.3-2.1-0.9-2.7-1.8c-1.5-1.5-2.6-3.4-3.2-5.7c-0.6-2.3-1.2-4.3-1.8-6.1c-0.6-2.1-1.1-4.2-1.4-6.3
			c-0.6-1.8-0.8-3.8-0.7-5.9c0.2-2.1,0.5-4.4,1.1-6.8c-1.8,2.1-4.1,4.5-6.9,7.2c-2.7,2.7-5.5,5.4-8.2,7.9c-2.7,2.6-5.3,5-7.5,7.2
			c-2.3,2.3-4,4-5.3,5.2c-3.1,2.7-5.6,3.8-7.8,3.2c-1.2,0-2.3-0.5-3.2-1.4c-1.8-1.2-3.3-2.7-4.6-4.5c-1.2-1.5-2.4-3.4-3.4-5.7
			c-1.1-2.3-1.9-5.1-2.5-8.4c-0.3-2.1,0.5-5.4,2.5-9.7c2-4.4,4.7-9.4,8.2-14.9c3.5-5.6,7.3-11.3,11.4-17.2c4.1-5.9,8-11.4,11.7-16.5
			c3.7-5.1,6.9-9.4,9.6-12.9c2.7-3.5,4.4-5.7,5-6.6c1.2-1.8,2.3-3.3,3.2-4.5c0.6-1.2,1.2-2.3,1.8-3.4c0.6-1.1,0.6-1.9,0-2.5h2.7
			c1.5,0,3.5,0.5,5.9,1.4c2.1,0.6,4.8,1.8,8,3.6c3.2,1.8,5.9,4.5,8,8.1c0.9-3,1.4-5.4,1.4-7.2v-2.3c2.4,0.6,4.9,1.4,7.3,2.3
			c2.1,0.9,4.3,2,6.6,3.2c2.3,1.2,4.6,2.7,7.1,4.5c0.9,0.9,1.7,2,2.3,3.2c0.6,1.2,1,2.5,1.1,3.8c0.1,1.4-0.2,2.8-1.1,4.3
			c-0.9,1.5-2.7,4.6-5.5,9.3c-2.7,4.7-5.7,10-8.9,16.1c-3.2,6-6.1,12.3-8.7,18.8c-2.6,6.5-4.3,12.4-5.3,17.9
			c-0.3,1.2,0.4,1.5,2.1,0.9c1.7-0.6,3.9-1.7,6.6-3.4c2.7-1.7,5.9-3.8,9.4-6.3C604.4,502.1,607.8,499.4,611.2,496.7z M561.8,489.9
			c0.9-2.7,2.2-5.7,3.9-9.1c1.7-3.3,3.4-6.6,5.3-10c1.8-3.3,3.6-6.5,5.3-9.5c1.7-3,3.1-5.6,4.3-7.7c-0.9,0-2.6,1.3-5,3.8
			c-2.4,2.6-5.2,5.7-8.2,9.5c-3.1,3.8-6.2,8-9.6,12.7c-3.4,4.7-6.6,9.1-9.6,13.1c-3.1,4.1-5.6,7.7-7.8,10.9
			c-2.1,3.2-3.5,5.2-4.1,6.1c-0.9,1.5-1.4,2.6-1.6,3.2c-0.2,0.6-0.2,1.1-0.2,1.4c0,0.3,0.3,0.3,0.9,0c0.3,0,1.5-0.9,3.7-2.7
			c2.1-1.8,4.5-3.9,7.1-6.3c2.6-2.4,5.3-5,8.2-7.9C557.2,494.5,559.7,492,561.8,489.9z"/>
		<path class="st1" d="M695.8,491.7c1.5-0.9,2.6-1.1,3.2-0.5c1.2,1.8,0.3,3.8-2.7,5.9c-4,3.3-8.2,6.7-12.6,10.2
			c-4.4,3.5-8.5,6.6-12.3,9.5c-3.8,2.9-7.2,5.4-10.3,7.7c-3.1,2.3-5.3,3.8-6.9,4.8c-2.4,1.8-4.5,2.9-6.2,3.4c-1.7,0.5-3,0.5-3.9,0.2
			c-1.2-0.3-2-0.9-2.3-1.8c-0.6-1.2-1.1-2.4-1.6-3.6c-0.5-1.2-1-2.4-1.6-3.6c-1.8-5.7-3.2-11-4.1-15.8c-0.9-4.8-1.7-9.3-2.3-13.6
			c-4,6.6-7.5,13-10.7,19c-3.2,6-5.9,11.2-8,15.4c0,0.3-0.3,1.1-0.9,2.3c-0.6,0.9-1.1,1.5-1.4,1.8c-0.3,0.3-0.6,0.6-0.9,0.9
			c-0.3,0.3-0.6,0.3-0.9,0c-0.6-0.3-1.1-0.7-1.4-1.1c-0.3-0.5-0.8-1-1.4-1.6c-0.6-0.6-1.1-1.2-1.4-1.8c-1.2-1.5-2.1-3.3-2.5-5.4
			c-0.5-2.1-0.8-3.9-1.1-5.4c-0.3-1.8-0.6-3.8-0.9-5.9c0-3.6,2.5-11,7.5-22.2c5-11.2,11.5-24,19.4-38.5c0.9-1.5,1.6-2.7,2.1-3.6
			c0.5-0.9,1-2.1,1.6-3.6c1.8-3.3,3.1-6.3,3.9-8.8c0.8-2.6,1.4-4.6,2.1-6.1c0.3-1.8,0.5-3.5,0.5-5c0.3,0.3,0.8,0.5,1.4,0.5
			c0.6,0.3,1.1,0.5,1.4,0.5c0.3,0,0.8,0.2,1.4,0.5c2.4,0.6,5,1.4,7.8,2.5c2.7,1.1,5.6,2.6,8.7,4.8c0.3,0.6,0.8,1.2,1.4,1.8
			c0.3,0.6,0.6,1.3,0.9,2c0.3,0.8,0.5,1.6,0.5,2.5c2.1-1.8,4.1-3.5,5.9-5c1.8-1.5,3.3-2.9,4.6-4.1c1.2-1.2,2.4-2.6,3.7-4.1
			c2.4,0.3,4.9,1.1,7.3,2.3c2.1,0.9,4.3,2,6.6,3.4c2.3,1.4,4.5,2.8,6.6,4.3c0.6,0.9,1.2,2,1.8,3.2c0.9,2.7,0.6,5.4-0.9,8.1
			c-0.3,0.6-0.7,1.2-1.1,1.8c-0.5,0.6-1,1.4-1.6,2.3c-3.4,4.2-8.3,9.5-14.9,15.8c-6.6,6.3-14.6,10.7-24,13.1h-0.9
			c-0.3,0-0.5,0.5-0.5,1.4c0,1.5,0.2,3.7,0.5,6.6c0.3,2.9,0.8,5.8,1.4,8.8c0.6,3,1.5,5.8,2.7,8.4c1.2,2.6,2.7,4.2,4.6,4.8
			c0.9,0.3,2.4,0.2,4.6-0.5c2.7-1.5,6.5-3.8,11.2-7c4.7-3.2,9.5-6.4,14.4-9.7L695.8,491.7z M645,470.9c3.3-2.7,6.4-5.4,9.1-8.1
			c2.7-2.7,5-5.3,6.9-7.7c2.1-2.7,4.1-5.3,5.9-7.7c0-0.3,0.1-0.5,0.2-0.7c0.2-0.1,0.2-0.4,0.2-0.7c0.6-0.6,1.1-1.3,1.6-2
			c0.5-0.7,0.8-1.4,1.1-2c-2.7,2.4-5.5,4.7-8.2,6.8c-2.7,2.1-5.3,4.2-7.8,6.3c-0.6,1.2-1.2,2.4-1.8,3.6c-0.6,1.2-1.5,2.6-2.7,4.1
			c-0.6,1.2-1.3,2.5-2.1,3.8C646.8,468,645.9,469.4,645,470.9z"/>
		<path class="st1" d="M732.3,492.2c1.5-1.2,2.7-1.4,3.7-0.5c0.9,1.5,0.2,3.5-2.3,5.9c-1.8,1.5-3.7,3.2-5.7,5c-2,1.8-4,3.5-6.2,5
			c-5.5,4.5-10.7,8.8-15.5,12.7c-4.9,3.9-8.5,6.8-11,8.6l-0.5,0.5l-0.5,0.5c-3.7,2.4-6.6,3.6-8.7,3.6c-1.2,0-2.1-0.3-2.7-0.9
			l-0.9-0.9c-1.5-1.5-2.6-3.4-3.2-5.7c-0.6-2.3-1.2-4.3-1.8-6.1c-0.6-2.1-1.1-4.2-1.4-6.3c-0.6-3.9,1.4-11.8,5.9-23.8
			c4.6-11.9,10.4-25.4,17.4-40.5c1.5-4.2,3.7-8.6,6.4-13.1c0.6-1.5,1.2-2.9,1.8-4.1c0.6-1.2,1.2-2.6,1.8-4.1
			c4.9-10,8.3-17,10.3-21.3c2-4.2,3.7-7.8,5.3-10.9l1.4-2.7c1.8-3.3,3.1-6.3,3.9-8.8c0.8-2.6,1.3-4.6,1.6-6.1
			c0.3-1.8,0.5-3.3,0.5-4.5c2.4,0.3,4.9,1.1,7.3,2.3c4.9,2.1,9.4,4.7,13.7,7.7c0.9,0.9,1.7,2,2.3,3.2c0.6,1.2,1,2.5,1.1,3.8
			c0.2,1.4-0.2,2.8-1.1,4.3c-0.6,0.9-1.1,1.8-1.6,2.7c-0.5,0.9-1.5,2.8-3.2,5.7c-1.7,2.9-4,7.3-7.1,13.4c-3.1,6-7.3,14.6-12.8,25.8
			c-1.8,3.9-3.7,7.8-5.5,11.5c-1.8,3.8-3.7,7.5-5.5,11.1c-5.2,10.6-9.4,19.9-12.6,28.1c-3.2,8.1-5.1,13.9-5.7,17.2v0.5v0.5h0.5v0.5
			h0.5h0.5h0.5h0.5l0.5-0.5h0.9c0-0.3,0.2-0.5,0.5-0.5h0.5l0.5-0.5c0.3,0,0.5-0.1,0.5-0.2c0-0.1,0.1-0.2,0.5-0.2
			c0.3,0,0.5-0.1,0.5-0.2c0-0.1,0.1-0.2,0.5-0.2c0.3-0.3,0.6-0.5,0.9-0.7c0.3-0.1,0.6-0.4,0.9-0.7c0.6-0.3,1-0.5,1.1-0.7
			c0.1-0.1,0.5-0.4,1.1-0.7c0.3,0,0.6-0.1,0.9-0.5v-0.5c1.2-0.6,2-1.1,2.3-1.4h0.5c0.6-0.6,1.2-1.1,1.8-1.4c1.8-1.5,3.7-3,5.7-4.5
			c2-1.5,4-3,6.2-4.5L732.3,492.2z"/>
		<path class="st1" d="M809.6,468.7c-6.7,11.5-13.4,21.7-20.1,30.8c-5.8,7.9-12,15.1-18.7,21.7c-6.7,6.6-12.8,10.3-18.3,10.9
			c-4.6,0-8.2-1.7-11-5c-2.4-3-4.1-6.5-5-10.4c-0.9-3.9-1.7-7.4-2.3-10.4v0.5v-5.9c0-3.3,0.3-6.7,0.9-10.2c0.6-3.5,1.2-6.4,1.8-8.8
			c0.6-1.8,1.2-3.8,1.8-6.1c0.6-2.3,1.2-4.1,1.8-5.7v-0.5c0.3-0.3,0.5-0.7,0.5-1.4c2.7-7.2,5.2-13.1,7.3-17.7c2.1-4.5,3.8-7.7,5-9.5
			c1.8-3.3,4-6.4,6.4-9.3c2.4-2.9,5-3.8,7.8-2.9l5.5,2.7c2.4-1.5,4.7-2.9,6.9-4.1c2.1-1.2,3.8-1.7,5-1.4c1.5,0.3,3.5,1,5.9,2
			c2.4,1.1,4.9,2.3,7.5,3.8c2.6,1.5,5,3.1,7.3,4.8c2.3,1.7,4.2,3.1,5.7,4.3c0,0.3,0.5,0.8,1.4,1.6c0.9,0.8,1.7,1.6,2.3,2.5v0.5
			c0.9,1.5,1.2,4.1,0.9,7.7C815.7,456.9,813.5,462,809.6,468.7z M746,520.3c0.9,0.6,3.4-2.1,7.5-8.1c4.1-6,8.6-13,13.5-21
			c4.9-8,9.4-15.9,13.5-23.8c4.1-7.8,6.6-13.4,7.5-16.7c0.9-3.3,1.1-5.9,0.7-7.7c-0.5-1.8-1.1-3.3-2.1-4.5c-1.2-1.2-2.6-2.3-4.1-3.2
			c-0.3,0.3-0.6,0.5-0.9,0.5c-0.3,0.3-0.6,0.5-0.9,0.5c-0.3,0-0.8,0.2-1.4,0.5c0.6,1.2,1.1,2.5,1.4,3.8c0.3,1.4,0,2.9-0.9,4.8
			c-0.6,1.2-1.1,2.4-1.4,3.6l-7.3,14.5c-2.7,6.3-6.4,14.3-11,24c-4.6,9.7-9,18.9-13.3,27.6l-0.9,2.7
			C745.4,519.3,745.4,520.3,746,520.3z"/>
		<path class="st1" d="M861.6,446.3c0,3.9-0.1,8.9-0.2,14.9c-0.2,6-0.5,13.4-1.1,22.2c-0.6,6.3-1.9,12-3.9,17c-2,5-4.2,9.3-6.6,12.9
			c-2.4,3.6-4.8,6.5-7.1,8.6c-2.3,2.1-3.9,3.6-4.8,4.5c-6.1,4.5-13,6.1-20.8,4.8c-7.8-1.4-13.3-4.9-16.7-10.6
			c-1.5-2.4-2.5-4.9-3-7.5c-0.5-2.6-0.5-5.1-0.2-7.5c0-2.7,0.5-5.4,1.4-8.1c1.2-4.5,3.1-8.1,5.5-10.9c2.4-2.7,4.9-4.8,7.3-6.3
			c3.1-1.5,6.1-2.7,9.1-3.6c2.4-0.6,4.1-0.5,5,0.2c0.9,0.8,1.4,1.4,1.4,2c0,1.2-0.5,2.3-1.4,3.2c-6.1,8.1-9.6,15.8-10.5,23.1
			s-0.6,11.5,0.9,12.7c0.6,0.9,1.4,1.4,2.5,1.4c1.1,0,1.9-0.3,2.5-0.9l2.7-1.8c3.7-3.6,6.3-9.4,8-17.4c1.7-8,2.7-16.1,3.2-24.4
			c0.5-8.3,0.6-15.8,0.5-22.6c-0.2-6.8-0.2-10.9-0.2-12.4c0-1.5,0.7-3.9,2.1-7.2c1.4-3.3,4.8-5.4,10.3-6.3c2.4-0.3,4.6-0.4,6.6-0.2
			c2,0.2,3.7,0.2,5.3,0.2c1.8,0.3,3.7,0.5,5.5,0.5c1.2,0.6,2.6,1.3,4.1,2c1.5,0.8,2.9,2,4.1,3.8v0.5l0.5,0.5c0.3,0.6,0.6,1.3,0.9,2
			c0.3,0.8,0.5,1.9,0.5,3.4c0.3,1.5,0.4,3.2,0.2,5c-0.2,1.8-1,3.5-2.5,5c-0.6,1.2-1.6,2.2-3,2.9c-1.4,0.8-3,0.7-4.8-0.2
			c0.9-1.2,1.7-2.4,2.3-3.6c0.6-1.2,1.1-2.3,1.4-3.4c0.3-1.1,0.1-2.3-0.5-3.8c-0.6-2.4-1.7-3.6-3.2-3.6c-1.5,0-2.4,1.2-2.7,3.6
			C861.7,441.6,861.6,443.6,861.6,446.3z"/>
		<path class="st1" d="M290.7,710.3c-4.8,7.9-9.3,12.3-13.5,13.3c-4.2,0.9-7.4,0.7-9.6-0.7c-1.8-1.4-4-3.3-6.6-5.6
			c-2.6-2.3-5.1-5.4-7.7-9.1c-2.2-3.3-3.1-10.7-2.8-22.3c0.4-11.6,4.2-28.6,11.6-50.9c-0.4,0.5,0.9-3.4,3.9-11.5
			c2.9-8.1,6.4-17.6,10.5-28.3c0.7-0.9,1.1-1.9,1.1-2.8c-11.4,1.4-24.3,3.7-38.8,7c-14.5,3.3-29.4,7.9-44.8,14
			c-7.3,18.6-13.9,35.8-19.8,51.6c-5.9,15.8-10.6,27.7-14.3,35.6c-2.6,7.9-4.7,15.4-6.3,22.3c-1.7,7-2.7,13.7-3,20.2
			c-0.4,1.4-0.5,2.7-0.5,3.8c0,1.2,0,2.2,0,3.1c0,0.9,0.1,2.7,0.3,5.2c0.2,2.6,0.5,5.2,0.8,8c0.7,2.3,0.6,3.9-0.3,4.9
			c-0.9,0.9-3.2-0.2-6.9-3.5c-4.4-3.7-7.9-7.7-10.5-11.9c-1.5-1.9-2.4-3.7-2.8-5.6c-4-7.9-3.9-22,0.5-42.2
			c4.4-20.2,11-43.4,19.8-69.4c-4,2.8-7.9,5.6-11.6,8.4c-3.7,2.8-7.3,6.1-11,9.8c-0.4,0-0.9,0.5-1.7,1.4c-0.7,0.5-1.3,0.9-1.6,1.4
			c-0.4,0.5-0.9,0.9-1.7,1.4c-1.5,1.4-3.1,3.1-5,5.2c-1.8,2.1-3.3,4.1-4.4,5.9c-5.1,7.4-8.3,15.4-9.4,23.7c-1.5-1.4-2.9-3-4.4-4.9
			c-2.6-4.2-3.9-9.8-3.9-16.7v-1.4c0-1.4,0.4-4.8,1.1-10.1c0.7-5.3,3.1-11.5,7.1-18.5l0.6-0.7c1.5-2.3,3.9-5.7,7.4-10.1
			c3.5-4.4,8.9-9.2,16.2-14.3c4.8-4.2,10.3-8.3,16.5-12.2c6.2-3.9,13.2-7.6,20.9-10.8c8.4-22.8,17.1-45.4,25.9-67.7
			c8.8-22.3,16.9-43.3,24.2-62.8c4.4-10.7,7.8-19.7,10.2-26.9c2.4-7.2,4.3-13.1,5.8-17.8c-2.9-2.3-6-4.9-9.1-7.7
			c-3.1-2.8-5.8-4.9-8-6.3c-20.9-12.6-38.4-19.5-52.5-20.9c-14.1-1.4-25.4,0.6-33.8,5.9c-8.4,5.4-14.4,13-17.9,23
			c-3.5,10-5,19.9-4.7,29.7c0,9.8,1.7,19.4,5,29c3.3,9.5,7.7,18,13.2,25.5c5.5,7.4,12.2,13.6,20.1,18.5c7.9,4.9,16.6,8,26.1,9.4
			c-3.7,5.1-8.3,8.8-13.8,11.2c-4.8,2.3-10.6,3.6-17.6,3.8c-7,0.2-15-2-24.2-6.6c-9.2-4.6-16.6-11.3-22.3-19.9
			c-5.7-8.6-9.9-17.9-12.7-27.9c-2.8-10-4.2-20-4.4-30c-0.2-10,0.6-18.7,2.5-26.2c1.5-7.4,4.6-16.3,9.4-26.5
			c4.8-10.2,11.5-19.2,20.1-26.9c8.6-7.7,19.5-12.8,32.7-15.4c13.2-2.6,29.2,0.1,47.9,8c14.7,6.1,31.2,15.6,49.5,28.6
			c12.8,8.8,19.6,18.8,20.4,30c0.7,11.2-2.6,26.1-9.9,44.7c-1.5,3.3-3.6,8.5-6.3,15.7c-2.8,7.2-6.1,15.8-9.9,25.8
			c-3.9,10-8,20.9-12.4,32.8c-4.4,11.9-9,24.1-13.8,36.6c12.8-2.3,26.1-3.9,39.9-4.9c13.8-0.9,26.1-1.2,37.1-0.7
			c1.1-3.7,2.3-7.2,3.6-10.5c1.3-3.2,2.5-6.7,3.6-10.5c1.5-3.7,2.8-7.2,3.8-10.5c1.1-3.2,2.4-6.5,3.8-9.8c0.7-2.3,1.5-4.4,2.2-6.3
			c0.7-1.9,1.5-3.9,2.2-6.3c5.9-15.4,10.4-27.3,13.5-35.9c3.1-8.6,5.6-15.2,7.4-19.9c1.8-4.6,3.2-8,4.1-10.1c0.9-2.1,1.9-4.5,3-7.3
			c3.7-10.2,5.9-17.9,6.6-23c0.4-2.8,0.5-5.1,0.5-7c2.9,0.5,5.9,1.6,8.8,3.5c5.9,3.3,11.4,7.2,16.5,11.9c1.1,1.4,2,3,2.8,4.9
			c1.5,4.7,1.3,8.8-0.6,12.6c-0.7,1.4-1.7,3.7-3,7c-1.3,3.3-3.3,8.4-6.1,15.4c-2.8,7-6.3,16.2-10.7,27.6
			c-4.4,11.4-9.9,25.7-16.5,42.9c-2.6,6.1-5,12-7.2,17.8c-2.2,5.8-4.2,11.5-6.1,17.1v0.7c0.7,0,1.2,0.1,1.4,0.3
			c0.2,0.2,0.6,0.3,1.4,0.3c1.5,0.5,2.7,0.9,3.6,1.4c0.9,0.5,1.7,0.9,2.5,1.4c0.7,0.5,1.4,0.8,1.9,1c0.5,0.2,1.2,0.6,1.9,1
			c0.7,0.5,1.3,0.9,1.7,1.4c2.6,2.3,4.5,5.1,5.8,8.4c1.3,3.3,1.2,7.4-0.3,12.6c-0.4,0.5-0.6,0.9-0.6,1.4c0,0.5-0.2,1.2-0.5,2.1
			c-2.6,8.8-6.1,18.5-10.5,29c-4.4,10.5-8.8,20.5-13.2,30c-4.4,9.5-8.4,18-12.1,25.5C294.8,703.8,292.2,708.4,290.7,710.3z
			 M299,627.9c-4,12.1-7.3,22.3-9.9,30.7c-2.6,8.4-3.7,13.5-3.3,15.4c0.4,3.7,1.4,5.4,3,4.9c1.7-0.5,3.5-2.4,5.5-5.9
			c2-3.5,4.3-7.9,6.9-13.3c2.6-5.3,4.9-11,7.1-17.1c0.7-2.3,1.7-4.8,3-7.3c1.3-2.6,2.3-5,3-7.3c0.7-2.3,1.5-4.3,2.2-5.9
			c0.7-1.6,1.5-3.4,2.2-5.2c0-0.5,0.1-0.8,0.3-1c0.2-0.2,0.3-0.6,0.3-1c0.7-2.8,0.8-6.5,0.3-11.2c-0.5-4.6-3.4-8.6-8.5-11.9
			l-1.1,2.8c-1.8,5.1-3.5,10.1-5,15c-1.5,4.9-3.1,9.7-5,14.3C299.3,625.6,299,627,299,627.9z"/>
		<path class="st1" d="M413.5,631c0.9,1.2,0,3.2-2.7,5.9c-9.8,7.9-20.5,15.2-32.2,22.2c-11.7,6.9-23.8,13-36.3,18.1v0.5
			c-1.5,0.6-2.8,0.8-3.9,0.7c-1.1-0.2-1.9-0.4-2.5-0.7c-0.9-0.3-1.5-0.8-1.8-1.4c-1.2-1.5-2.2-3.3-3-5.4c-0.8-2.1-1.4-4.1-2.1-5.9
			c-0.6-2.1-1.1-4.2-1.4-6.3c-0.3-4.8,0.9-10.8,3.7-17.9c2.7-7.1,6-14.2,9.8-21.3c3.8-7.1,7.7-13.7,11.7-19.7c4-6,7-10.7,9.1-14
			c3.7-5.7,6.1-10.6,7.3-14.5c0.6-1.8,0.8-3.5,0.5-5c1.8,0.3,3.8,0.9,5.9,1.8c4.3,1.5,8.2,3.3,11.9,5.4c0.6,0.6,2.4,1.9,5.3,3.8
			c2.9,2,5.6,4.3,8.2,7c2.6,2.7,4.6,5.8,5.9,9.3c1.4,3.5,1,6.7-1.1,9.7c-1.2,1.8-3.3,3.8-6.2,6.1c-2.9,2.3-6.2,4.6-10.1,7
			c-3.8,2.4-7.8,4.8-12.1,7c-4.3,2.3-8.2,4.3-11.9,6.1c-1.5,3.3-3.8,7.3-6.9,12c-3,4.7-4.3,9.1-3.7,13.4c0.3,2.1,2.5,2.7,6.6,1.8
			c4.1-0.9,8.9-2.6,14.4-5.2c5.5-2.6,11.1-5.6,16.9-9.1c5.8-3.5,10.5-6.6,14.2-9.3l2.7-1.8C411.4,630.3,412.6,630.1,413.5,631z
			 M387.4,593.9c-4.6,6.3-9.9,14.5-16,24.4c4.6-2.4,9-4.9,13.3-7.5c4.3-2.6,6.7-5.1,7.3-7.5c0.9-1.5,0.9-3.1,0-4.8
			C391.1,597,389.6,595.4,387.4,593.9z"/>
		<path class="st1" d="M492.7,634.2c1.5-0.9,2.6-1.1,3.2-0.5c1.2,1.8,0.3,3.8-2.7,5.9c-4,3.3-8.2,6.7-12.6,10.2
			c-4.4,3.5-8.5,6.6-12.3,9.5c-3.8,2.9-7.2,5.4-10.3,7.7c-3,2.3-5.3,3.8-6.9,4.8c-2.4,1.8-4.5,2.9-6.2,3.4c-1.7,0.5-3,0.5-3.9,0.2
			c-1.2-0.3-2-0.9-2.3-1.8c-0.6-1.2-1.1-2.4-1.6-3.6c-0.5-1.2-1-2.4-1.6-3.6c-1.8-5.7-3.2-11-4.1-15.8c-0.9-4.8-1.7-9.4-2.3-13.6
			c-4,6.6-7.6,13-10.8,19c-3.2,6-5.9,11.2-8,15.4c0,0.3-0.3,1.1-0.9,2.3c-0.6,0.9-1.1,1.5-1.4,1.8c-0.3,0.3-0.6,0.6-0.9,0.9
			c-0.3,0.3-0.6,0.3-0.9,0c-0.6-0.3-1.1-0.7-1.4-1.1c-0.3-0.5-0.8-1-1.4-1.6c-0.6-0.6-1.1-1.2-1.4-1.8c-1.2-1.5-2.1-3.3-2.5-5.4
			c-0.5-2.1-0.8-3.9-1.1-5.4c-0.3-1.8-0.6-3.8-0.9-5.9c0-3.6,2.5-11,7.6-22.2c5-11.2,11.5-24,19.4-38.5c0.9-1.5,1.6-2.7,2.1-3.6
			s1-2.1,1.6-3.6c1.8-3.3,3.1-6.3,3.9-8.8c0.8-2.6,1.4-4.6,2.1-6.1c0.3-1.8,0.5-3.5,0.5-5c0.3,0.3,0.8,0.5,1.4,0.5
			c0.6,0.3,1.1,0.5,1.4,0.5c0.3,0,0.8,0.2,1.4,0.5c2.4,0.6,5,1.4,7.8,2.5c2.7,1.1,5.6,2.6,8.7,4.8c0.3,0.6,0.8,1.2,1.4,1.8
			c0.3,0.6,0.6,1.3,0.9,2c0.3,0.8,0.5,1.6,0.5,2.5c2.1-1.8,4.1-3.5,5.9-5c1.8-1.5,3.4-2.9,4.6-4.1c1.2-1.2,2.4-2.6,3.7-4.1
			c2.4,0.3,4.9,1.1,7.3,2.3c2.1,0.9,4.3,2,6.6,3.4c2.3,1.4,4.5,2.8,6.6,4.3c0.6,0.9,1.2,2,1.8,3.2c0.9,2.7,0.6,5.4-0.9,8.1
			c-0.3,0.6-0.7,1.2-1.1,1.8c-0.5,0.6-1,1.4-1.6,2.3c-3.4,4.2-8.3,9.5-14.9,15.8c-6.6,6.3-14.6,10.7-24,13.1l-0.9,0
			c-0.3,0-0.5,0.5-0.5,1.4c0,1.5,0.1,3.7,0.5,6.6c0.3,2.9,0.8,5.8,1.4,8.8c0.6,3,1.5,5.8,2.7,8.4c1.2,2.6,2.7,4.2,4.6,4.8
			c0.9,0.3,2.4,0.2,4.6-0.5c2.7-1.5,6.5-3.8,11.2-7c4.7-3.2,9.5-6.4,14.4-9.7L492.7,634.2z M441.9,613.3c3.3-2.7,6.4-5.4,9.1-8.1
			c2.7-2.7,5-5.3,6.9-7.7c2.1-2.7,4.1-5.3,5.9-7.7c0-0.3,0.1-0.5,0.2-0.7c0.2-0.1,0.2-0.4,0.2-0.7c0.6-0.6,1.1-1.3,1.6-2
			c0.5-0.7,0.8-1.4,1.1-2c-2.7,2.4-5.5,4.7-8.2,6.8c-2.7,2.1-5.3,4.2-7.8,6.3c-0.6,1.2-1.2,2.4-1.8,3.6c-0.6,1.2-1.5,2.6-2.7,4.1
			c-0.6,1.2-1.3,2.5-2.1,3.8C443.7,610.4,442.8,611.8,441.9,613.3z"/>
		<path class="st1" d="M578.3,630.5c1.8-1.2,2.9-1.4,3.2-0.5c0.9,1.5,0.1,3.5-2.3,5.9c-4,3.3-8.1,6.7-12.3,10.2
			c-4.3,3.5-8.3,6.6-12.1,9.5c-3.8,2.9-7.2,5.4-10.1,7.7c-2.9,2.3-5.1,3.8-6.6,4.8c-2.4,1.8-4.5,2.9-6.2,3.4c-1.7,0.5-3,0.5-3.9,0.2
			c-1.2-0.3-2-0.9-2.3-1.8c-1.2-1.5-2.1-3.4-2.7-5.7c-0.6-2.3-1.2-4.3-1.8-6.1c-0.6-2.1-0.9-4.2-0.9-6.3c-0.6-4.8,0.2-10.4,2.3-16.7
			c2.1-6.3,4.8-12.7,8-19c3.2-6.3,6.5-12.3,9.8-17.9c3.3-5.6,5.9-10,7.8-13.4c1.2-1.2,2.1-2.6,2.7-4.1c-3,1.5-6.8,3.6-11.2,6.3
			c-4.4,2.7-7.8,5-10.3,6.8c-0.6,1.2-1.2,2.4-1.8,3.6c-0.6,1.2-1.2,2.6-1.8,4.1c-1.8,4.2-4.1,9.2-6.9,14.9
			c-2.7,5.7-5.6,11.8-8.5,18.1c-2.9,6.3-5.7,12.4-8.5,18.3c-2.7,5.9-5,10.8-6.9,14.7c-0.6,0.6-0.9,1.4-0.9,2.3
			c-0.6,0.9-1.1,1.5-1.4,1.8c-0.3,0.3-0.6,0.6-0.9,0.9c-0.3,0.3-0.6,0.3-0.9,0c-0.6-0.3-1.1-0.7-1.6-1.1c-0.5-0.5-1-1-1.6-1.6
			c-0.6-0.6-1.1-1.2-1.4-1.8c-1.2-1.5-2.1-3.3-2.5-5.4c-0.5-2.1-1-3.9-1.6-5.4c-0.6-1.8-1.1-3.8-1.4-5.9c-0.6-3.9,1.2-11.4,5.5-22.4
			c4.3-11,9.6-23.8,16-38.3c0.6-1.5,1.1-2.8,1.6-3.8c0.5-1.1,1-2.2,1.6-3.4c2.4-6.3,4-11.3,4.6-14.9c0.3-1.8,0.5-3.5,0.5-5
			c0.3,0.3,0.8,0.5,1.4,0.5c0.6,0,1.1,0.1,1.4,0.2c0.3,0.2,0.8,0.2,1.4,0.2c2.1,0.6,4.7,1.5,7.8,2.7c3,1.2,6.1,2.9,9.1,5l1.8,1.8
			c0.6,1.2,1.2,2.7,1.8,4.5c1.8-1.8,3.9-3.5,6.2-5c2.3-1.5,4.5-2.9,6.6-4.1c2.4-1.2,4.9-2.6,7.3-4.1c2.4,0.3,4.9,1.1,7.3,2.3
			c2.1,0.9,4.3,2,6.6,3.4c2.3,1.4,4.5,2.8,6.6,4.3c0.9,0.9,1.7,2,2.3,3.2c0.9,2.7,0.6,5.4-0.9,8.1c-0.9,1.5-2.9,4.6-5.9,9.3
			c-3,4.7-6.2,10-9.6,16.1c-3.4,6-6.6,12.3-9.6,18.8c-3,6.5-5.2,12.4-6.4,17.9c0,1.5,0.8,2,2.5,1.4c1.7-0.6,3.9-1.8,6.6-3.6
			c2.7-1.8,5.9-3.9,9.6-6.3c3.7-2.4,7.3-5,11-7.7L578.3,630.5z"/>
		<path class="st1" d="M669.8,636.1c0.9-0.3,1.8-0.7,2.7-1.4c2.1-0.6,3.3-0.7,3.7-0.5c1.2,1.2,0.5,3.2-2.3,5.9
			c-3.7,3.3-7.5,6.6-11.7,10c-4.1,3.3-8,6.4-11.7,9.3c-3.7,2.9-6.9,5.5-9.8,7.9c-2.9,2.4-5,4.1-6.2,5c-2.4,1.8-4.4,2.9-5.9,3.4
			c-1.5,0.5-2.7,0.5-3.7,0.2c-1.2-0.3-2.1-0.9-2.7-1.8c-1.5-1.5-2.6-3.4-3.2-5.7c-0.6-2.3-1.2-4.3-1.8-6.1c-0.6-2.1-1.1-4.2-1.4-6.3
			c-0.6-1.8-0.8-3.8-0.7-5.9c0.1-2.1,0.5-4.4,1.1-6.8c-1.8,2.1-4.1,4.5-6.9,7.2c-2.7,2.7-5.5,5.4-8.2,7.9c-2.7,2.6-5.3,5-7.5,7.2
			c-2.3,2.3-4,4-5.3,5.2c-3,2.7-5.6,3.8-7.8,3.2c-1.2,0-2.3-0.5-3.2-1.4c-1.8-1.2-3.4-2.7-4.6-4.5c-1.2-1.5-2.4-3.4-3.4-5.7
			c-1.1-2.3-1.9-5.1-2.5-8.4c-0.3-2.1,0.5-5.4,2.5-9.7c2-4.4,4.7-9.4,8.2-14.9c3.5-5.6,7.3-11.3,11.4-17.2c4.1-5.9,8-11.4,11.7-16.5
			c3.7-5.1,6.9-9.4,9.6-12.9c2.7-3.5,4.4-5.7,5-6.6c1.2-1.8,2.3-3.3,3.2-4.5c0.6-1.2,1.2-2.3,1.8-3.4c0.6-1.1,0.6-1.9,0-2.5h2.7
			c1.5,0,3.5,0.5,5.9,1.4c2.1,0.6,4.8,1.8,8,3.6c3.2,1.8,5.9,4.5,8,8.1c0.9-3,1.4-5.4,1.4-7.2v-2.3c2.4,0.6,4.9,1.4,7.3,2.3
			c2.1,0.9,4.3,2,6.6,3.2c2.3,1.2,4.6,2.7,7.1,4.5c0.9,0.9,1.7,2,2.3,3.2c0.6,1.2,1,2.5,1.1,3.8c0.1,1.4-0.2,2.8-1.1,4.3
			c-0.9,1.5-2.7,4.6-5.5,9.3c-2.7,4.7-5.7,10-8.9,16.1c-3.2,6-6.1,12.3-8.7,18.8c-2.6,6.5-4.3,12.4-5.3,17.9
			c-0.3,1.2,0.4,1.5,2.1,0.9c1.7-0.6,3.9-1.7,6.6-3.4c2.7-1.7,5.9-3.8,9.4-6.3C663,641.5,666.5,638.8,669.8,636.1z M620.5,629.3
			c0.9-2.7,2.2-5.7,3.9-9.1c1.7-3.3,3.4-6.6,5.3-10c1.8-3.3,3.6-6.5,5.3-9.5c1.7-3,3.1-5.6,4.3-7.7c-0.9,0-2.6,1.3-5,3.8
			c-2.4,2.6-5.2,5.7-8.2,9.5c-3,3.8-6.2,8-9.6,12.7c-3.4,4.7-6.6,9.1-9.6,13.1c-3,4.1-5.6,7.7-7.8,10.9c-2.1,3.2-3.5,5.2-4.1,6.1
			c-0.9,1.5-1.5,2.6-1.6,3.2c-0.2,0.6-0.2,1.1-0.2,1.4c0,0.3,0.3,0.3,0.9,0c0.3,0,1.5-0.9,3.7-2.7c2.1-1.8,4.5-3.9,7.1-6.3
			c2.6-2.4,5.3-5,8.2-7.9C615.8,633.9,618.3,631.4,620.5,629.3z M625.3,544.5c0.4-0.3,0.8-0.3,1-0.1c0.3,0.3,0.4,0.6,0.5,1.1
			c3.1,4.8,7.4,7.6,12.9,8.5c5.5,0.9,10.9,1,16.1,0.2c6.1-0.9,12.4-2.8,18.8-5.7c0.1,1.5-1.1,3.8-3.7,7c-2.6,3.2-6.8,5.5-12.6,7
			c-6.8,1.8-12.3,1.9-16.5,0.2c-4.2-1.6-7.5-3.9-10-6.7C628.9,552.8,626.7,548.9,625.3,544.5z"/>
		<path class="st1" d="M756.5,633.9c1.8-1.2,2.9-1.4,3.2-0.5c0.9,1.5,0.1,3.5-2.3,5.9c-4,3.3-8.1,6.7-12.3,10.2
			c-4.3,3.5-8.3,6.6-12.1,9.5c-3.8,2.9-7.2,5.4-10.1,7.7c-2.9,2.3-5.1,3.8-6.6,4.8c-2.4,1.8-4.5,2.9-6.2,3.4c-1.7,0.5-3,0.5-3.9,0.2
			c-1.2-0.3-2-0.9-2.3-1.8c-1.2-1.5-2.1-3.4-2.7-5.7c-0.6-2.3-1.2-4.3-1.8-6.1c-0.6-2.1-0.9-4.2-0.9-6.3c-0.6-4.8,0.2-10.4,2.3-16.7
			c2.1-6.3,4.8-12.7,8-19c3.2-6.3,6.5-12.3,9.8-17.9c3.3-5.6,5.9-10,7.8-13.4c1.2-1.2,2.1-2.6,2.7-4.1c-3,1.5-6.8,3.6-11.2,6.3
			c-4.4,2.7-7.8,5-10.3,6.8c-0.6,1.2-1.2,2.4-1.8,3.6c-0.6,1.2-1.2,2.6-1.8,4.1c-1.8,4.2-4.1,9.2-6.9,14.9
			c-2.7,5.7-5.6,11.8-8.5,18.1c-2.9,6.3-5.7,12.4-8.5,18.3c-2.7,5.9-5,10.8-6.9,14.7c-0.6,0.6-0.9,1.4-0.9,2.3
			c-0.6,0.9-1.1,1.5-1.4,1.8c-0.3,0.3-0.6,0.6-0.9,0.9c-0.3,0.3-0.6,0.3-0.9,0c-0.6-0.3-1.1-0.7-1.6-1.1c-0.5-0.5-1-1-1.6-1.6
			c-0.6-0.6-1.1-1.2-1.4-1.8c-1.2-1.5-2.1-3.3-2.5-5.4c-0.5-2.1-1-3.9-1.6-5.4c-0.6-1.8-1.1-3.8-1.4-5.9c-0.6-3.9,1.2-11.4,5.5-22.4
			c4.3-11,9.6-23.8,16-38.3c0.6-1.5,1.1-2.8,1.6-3.8c0.5-1.1,1-2.2,1.6-3.4c2.4-6.3,4-11.3,4.6-14.9c0.3-1.8,0.5-3.5,0.5-5
			c0.3,0.3,0.8,0.5,1.4,0.5c0.6,0,1.1,0.1,1.4,0.2c0.3,0.2,0.8,0.2,1.4,0.2c2.1,0.6,4.7,1.5,7.8,2.7c3,1.2,6.1,2.9,9.1,5l1.8,1.8
			c0.6,1.2,1.2,2.7,1.8,4.5c1.8-1.8,3.9-3.5,6.2-5c2.3-1.5,4.5-2.9,6.6-4.1c2.4-1.2,4.9-2.6,7.3-4.1c2.4,0.3,4.9,1.1,7.3,2.3
			c2.1,0.9,4.3,2,6.6,3.4c2.3,1.4,4.5,2.8,6.6,4.3c0.9,0.9,1.7,2,2.3,3.2c0.9,2.7,0.6,5.4-0.9,8.1c-0.9,1.5-2.9,4.6-5.9,9.3
			c-3,4.7-6.2,10-9.6,16.1c-3.4,6-6.6,12.3-9.6,18.8c-3,6.5-5.2,12.4-6.4,17.9c0,1.5,0.8,2,2.5,1.4c1.7-0.6,3.9-1.8,6.6-3.6
			c2.7-1.8,5.9-3.9,9.6-6.3c3.7-2.4,7.3-5,11-7.7L756.5,633.9z"/>
		<path class="st1" d="M850.9,636.1c0.9-0.3,1.8-0.8,2.7-1.4c2.1-0.6,3.4-0.7,3.7-0.5c1.2,1.2,0.5,3-2.3,5.4
			c-1.8,1.8-3.7,3.5-5.7,5.2c-2,1.7-4,3.2-6.2,4.8c-5.5,4.8-10.7,9.2-15.5,13.1c-4.9,3.9-8.5,6.6-11,8.1c0,0.3-0.2,0.5-0.5,0.5v0.5
			h-0.5c-2.1,1.5-3.9,2.5-5.3,2.9c-1.4,0.5-2.5,0.7-3.4,0.7c-1.2,0-2.1-0.3-2.7-0.9l-0.9-0.9c-1.5-1.5-2.7-3.3-3.4-5.4
			c-0.8-2.1-1.5-4.1-2.1-5.9c-0.6-2.1-1.1-4.2-1.4-6.3c0-1.5,0.2-3.5,0.7-6.1c0.5-2.6,1.3-5.5,2.5-8.8c-1.5,1.5-3.7,3.7-6.6,6.6
			c-2.9,2.9-5.9,5.8-8.9,8.8c-3,3-5.9,5.9-8.7,8.6c-2.7,2.7-4.7,4.7-5.9,5.9c-3.1,2.7-5.6,3.8-7.8,3.2c-1.2,0-2.3-0.5-3.2-1.4
			c-1.8-1.5-3.4-3.2-4.6-5c-1.2-1.5-2.4-3.4-3.4-5.7c-1.1-2.3-1.9-4.9-2.5-7.9c-0.3-2.1,0.5-5.4,2.5-9.7c2-4.4,4.7-9.3,8.2-14.9
			c3.5-5.6,7.3-11.3,11.4-17.2c4.1-5.9,8-11.4,11.7-16.5c3.7-5.1,6.9-9.4,9.6-12.9c2.7-3.5,4.4-5.7,5-6.6c1.2-1.8,2.3-3.3,3.2-4.5
			c0.6-1.2,1.2-2.4,1.8-3.6c0.6-1.2,0.6-2.1,0-2.7c0.6,0.3,1.5,0.5,2.7,0.5c0.6,0.3,1.4,0.5,2.5,0.5c1.1,0,2.2,0.3,3.4,0.9
			c2.1,0.6,4.8,1.8,8,3.6c3.2,1.8,5.9,4.5,8,8.1v-0.9l4.1-8.1c4.6-10,8.1-17.7,10.7-23.1c2.6-5.4,4.6-9.5,6.2-12.2
			c1.5-2.7,2.7-4.7,3.4-5.9c0.8-1.2,1.6-2.7,2.5-4.5c1.8-3.3,3.1-6.2,3.9-8.6c0.8-2.4,1.3-4.4,1.6-5.9c0.3-1.8,0.5-3.5,0.5-5
			c2.4,0.3,4.9,1.1,7.3,2.3c4.9,2.1,9.4,4.7,13.7,7.7c0.9,0.9,1.7,2,2.3,3.2c1.2,3,1.1,5.7-0.5,8.1c-0.6,0.9-1.5,2.3-2.5,4.3
			c-1.1,2-2.7,5.1-5,9.5c-2.3,4.4-5.3,10.1-8.9,17.2c-3.7,7.1-8.2,16.2-13.7,27.4c-1.8,4.2-3.7,8.1-5.5,11.8
			c-1.8,3.6-3.7,7.2-5.5,10.9c-5.2,10.6-9.4,20-12.6,28.3c-3.2,8.3-5.1,14.1-5.7,17.4v0.5v0.5h0.5h0.5h0.5h0.5h0.5h0.5v-0.5h0.9
			l0.5-0.5c0.3,0,0.6-0.1,0.9-0.5c0.3,0,0.6-0.1,0.9-0.5l0.9-0.5c0.6-0.6,1.2-0.9,1.8-0.9v-0.5c0.6-0.3,1-0.5,1.1-0.5
			c0.1,0,0.5-0.1,1.1-0.5v-0.5c0.3,0,0.5-0.1,0.5-0.2c0-0.1,0.1-0.2,0.5-0.2c0.6-0.3,1.4-0.9,2.3-1.8c0.6-0.3,1.2-0.8,1.8-1.4
			c2.1-1.5,4.2-3,6.2-4.5C846.7,639.2,848.8,637.7,850.9,636.1z M805.2,625.7c3.4-8.7,7.3-17.8,11.9-27.2c-0.9-1.2-3.4,0.5-7.3,5
			c-4,4.5-8.3,10-13,16.3c-4.7,6.3-9.1,12.4-13.3,18.3c-4.1,5.9-6.6,9.6-7.5,11.1c-0.9,1.5-1.5,2.5-1.6,2.9
			c-0.2,0.5-0.2,0.8-0.2,1.1c0,0.3,0.3,0.3,0.9,0c0.6,0,2.2-1.1,4.8-3.4c2.6-2.3,5.6-5,8.9-8.1c3.4-3.2,6.6-6.3,9.6-9.3
			C801.4,629.5,803.7,627.2,805.2,625.7z"/>
		<path class="st1" d="M939.2,627.7c0.9,1.2,0,3.2-2.7,5.9c-9.8,7.9-20.5,15.2-32.2,22.2c-11.7,6.9-23.8,13-36.3,18.1v0.5
			c-1.5,0.6-2.8,0.8-3.9,0.7c-1.1-0.2-1.9-0.4-2.5-0.7c-0.9-0.3-1.5-0.8-1.8-1.4c-1.2-1.5-2.2-3.3-3-5.4c-0.8-2.1-1.4-4.1-2.1-5.9
			c-0.6-2.1-1.1-4.2-1.4-6.3c-0.3-4.8,0.9-10.8,3.7-17.9c2.7-7.1,6-14.2,9.8-21.3c3.8-7.1,7.7-13.7,11.7-19.7c4-6,7-10.7,9.1-14
			c3.7-5.7,6.1-10.6,7.3-14.5c0.6-1.8,0.8-3.5,0.5-5c1.8,0.3,3.8,0.9,5.9,1.8c4.3,1.5,8.2,3.3,11.9,5.4c0.6,0.6,2.4,1.9,5.3,3.8
			c2.9,2,5.6,4.3,8.2,7c2.6,2.7,4.6,5.8,5.9,9.3c1.4,3.5,1,6.7-1.1,9.7c-1.2,1.8-3.3,3.8-6.2,6.1c-2.9,2.3-6.2,4.6-10.1,7
			c-3.8,2.4-7.9,4.8-12.1,7c-4.3,2.3-8.2,4.3-11.9,6.1c-1.5,3.3-3.8,7.3-6.9,12c-3.1,4.7-4.3,9.1-3.7,13.4c0.3,2.1,2.5,2.7,6.6,1.8
			c4.1-0.9,8.9-2.6,14.4-5.2c5.5-2.6,11.1-5.6,16.9-9.1c5.8-3.5,10.5-6.6,14.2-9.3l2.7-1.8C937,626.9,938.2,626.8,939.2,627.7z
			 M913.1,590.5c-4.6,6.3-9.9,14.5-16,24.4c4.6-2.4,9-4.9,13.3-7.5c4.3-2.6,6.7-5.1,7.3-7.5c0.9-1.5,0.9-3.1,0-4.8
			C916.8,593.6,915.2,592.1,913.1,590.5z"/>
		<path class="st1" d="M1003.5,571.4c1.5,1.2,3.3,2.8,5.5,4.8c2.1,2,4.1,4.3,5.9,7c0.3,0.6,0.6,1.5,0.9,2.7c0.3,0.9,0.5,1.9,0.7,2.9
			c0.2,1.1-0.1,2-0.7,2.9c-0.3,0.6-1.1,1.5-2.3,2.7l-2.7,2.7c-1.2,0.9-2.7,2.3-4.3,4.1c-1.7,1.8-4.2,4.2-7.5,7.2
			c-1.8,1.8-4.7,4.4-8.5,7.7c-3.8,3.3-8.1,6.9-12.8,10.9c-4.7,3.9-9.5,7.9-14.4,11.8c-4.9,3.9-9.4,7.7-13.7,11.3
			c5.8,0.6,11.4,0.7,16.9,0.2c5.5-0.5,9-0.2,10.5,0.7c1.8,1.2,3.5,2.4,5,3.6c2.4,2.1,5,5,7.8,8.6l0.9,1.8c0.3,0.6,0.6,1.3,0.9,2
			c0.3,0.8,0.5,1.4,0.5,2c0,0.3-0.2,0.6-0.5,0.9c-0.3,0.3-1.4,0.5-3.2,0.5h-2.7c-7,0-16,0-27,0c-11,0-21.3,0.2-31.1,0.5
			c-1.8,0-2.7-0.5-2.7-1.4c-0.6-0.6-0.9-1.1-0.9-1.4c0-0.3-0.1-0.7-0.5-1.4c-0.3-0.6-0.5-1.1-0.5-1.4c-0.6-2.1-0.8-4.1-0.7-6.1
			c0.2-2,0.4-3.8,0.7-5.7c0.3-1.8,0.6-3.8,0.9-5.9c0-0.3,0.1-0.6,0.2-0.9c0.2-0.3,0.2-0.6,0.2-0.9c1.2-2.1,4.6-5.8,10.3-11.1
			c5.6-5.3,12-11.2,19.2-17.7c7.2-6.5,14.5-13,21.9-19.7c7.5-6.6,13.8-12.5,19-17.7c-0.3,0-1.3,0.6-3,1.8c-1.7,1.2-3.5,2.5-5.5,3.8
			c-2,1.4-3.8,2.6-5.5,3.6c-1.7,1.1-2.7,1.6-3,1.6c-4.3,0.3-8.2,1-11.9,2c-3.7,1.1-6.2,1.6-7.8,1.6c-0.9,0-1.6,0.1-2.1,0.2
			c-0.5,0.2-1,0.2-1.6,0.2c-3,0.3-5.5-0.7-7.3-3.2c-0.9-1.2-1.5-2.4-1.8-3.6c-0.9-3.3-1.4-6.6-1.4-10c0-3.3,0.1-6,0.5-8.1v-3.2
			c0-0.3,0.2-0.6,0.5-0.9c1.2,0.3,2.7,0.8,4.6,1.4c1.5,0.6,3.5,1.1,5.9,1.4c2.4,0.3,5.6,0.3,9.6,0h7.8c3.4-0.3,6.7-0.5,10.1-0.5
			c3.3,0,6.7,0,10.1,0h1.4c0.6,0,1.8,0.2,3.7,0.5C999.8,569,1001.6,569.9,1003.5,571.4z"/>
	</g>
	<g>
		<path class="st1" d="M411.4,540.6c5.8,0,13.9-3,24.2-9.1c10.4-6,21.4-13.2,33.1-21.5c11.7-8.3,23.4-17.1,35-26.3
			c11.6-9.2,21.3-17,29.3-23.3c3.4-2.7,5-5.4,5-8.1c0-1.2-0.8-1.8-2.3-1.8c-0.6,0-1.1,0.2-1.6,0.5c-0.5,0.3-1,0.6-1.6,0.9l-1.8,0.9
			c-8.8,6.9-19,14.9-30.6,23.8c-11.6,8.9-22.9,17.3-34.1,25.3c-11.1,8-21.4,14.7-30.9,20.1c-9.5,5.4-16.5,8.1-21,8.1
			c-7,0-12.2-3.2-15.5-9.7c-3.4-6.5-5-14.6-5-24.2c0-7.2,0.8-15.2,2.5-24c1.7-8.7,4.1-17.6,7.3-26.5c3.2-8.9,6.9-17.7,11.2-26.5
			c4.3-8.7,9.1-16.9,14.6-24.4c19.5-27.2,36.7-47.1,51.7-60c14.9-12.8,25.9-19.2,32.9-19.2c2.7-1.5,4.7-2.4,5.9-2.7
			c1.2-0.3,2-0.4,2.3-0.2c0.3,0.2,0.5,0.4,0.7,0.7c0.1,0.3,0.5,0.3,1.1,0c1.8,0,3.4,0.6,4.6,1.8l-2.3,42.1
			c-3.4,6.3-6.2,11.6-8.5,15.8c-2.3,4.2-4.3,7.7-5.9,10.4c-1.7,2.7-3.2,5-4.6,6.8c-1.4,1.8-2.7,3.5-3.9,5c-2.7,2.7-5.2,4.6-7.3,5.7
			c-2.1,1.1-4,1.9-5.5,2.5c-1.8,0.6-3.4,0.8-4.6,0.5c1.8,1.5,3.7,2.7,5.5,3.6c1.8,0.9,3.5,1.8,5,2.7c0.9,0.6,2.3,1.2,4.1,1.8
			l1.8,0.9c3.3,1.5,6.2,2.4,8.7,2.7c2.4,0.3,4.4,0.3,5.9,0c1.8-0.3,3.4-0.8,4.6-1.4c2.4-1.8,4.9-4.7,7.3-8.6
			c2.4-3.9,4.4-7.1,5.9-9.5c1.2-1.8,2.8-4.4,4.8-7.9c2-3.5,4-7.2,6.2-11.1c2.1-3.9,4.2-7.9,6.2-12c2-4.1,3.6-7.5,4.8-10.2l1.4-3.2
			c4.9-10.3,8.7-17.6,11.4-22c2.7-4.4,4.6-7.2,5.5-8.4c2.4-3,4.6-5.2,6.6-6.6c2-1.4,3.7-2.3,5.3-2.9c1.8-0.6,3.5-0.9,5-0.9
			c-1.8-0.9-3.7-1.8-5.5-2.7c-1.8-0.9-3.7-1.7-5.5-2.3c-0.6-0.3-1.3-0.6-2.1-0.9c-0.8-0.3-1.4-0.6-2.1-0.9c-0.9-0.3-1.5-0.5-1.8-0.5
			c-3.4-1.2-6.2-1.9-8.7-2c-2.4-0.1-4.4-0.1-5.9,0.2c-1.8,0.3-3.4,0.9-4.6,1.8c-2.1,2.1-4.4,5.2-6.9,9.3c-2.4,4.1-4.4,7.5-5.9,10.2
			l-2.3,4.5c0.9-7.2,1.4-13.7,1.4-19.5c0-6.6-1.4-10.6-4.1-12c-2.7-1.4-6.9-2-12.3-2c-6.1,0-13.4,1.1-21.9,3.4
			c-8.5,2.3-18.1,6.9-28.8,13.8c-10.7,6.9-22.2,16.9-34.7,29.9c-12.5,13-25.8,30.2-39.8,51.6c-10.4,16-18,31.8-22.9,47.3
			c-4.9,15.5-7.3,30.1-7.3,43.7c0,17.2,3.6,30.9,10.7,41.2C388.2,535.5,398.3,540.6,411.4,540.6z"/>
		<path class="st1" d="M587.9,432.4c0,1.8-0.5,4.2-1.4,7.2c-2.1-3.6-4.8-6.3-8-8.1c-3.2-1.8-5.9-3-8-3.6c-2.4-0.9-4.4-1.4-5.9-1.4
			h-2.7c0.6,0.6,0.6,1.4,0,2.5c-0.6,1.1-1.2,2.2-1.8,3.4c-0.9,1.2-2,2.7-3.2,4.5c-0.6,0.9-2.3,3.1-5,6.6c-2.7,3.5-5.9,7.8-9.6,12.9
			c-3.7,5.1-7.5,10.6-11.7,16.5c-4.1,5.9-7.9,11.6-11.4,17.2c-3.5,5.6-6.2,10.6-8.2,14.9c-2,4.4-2.8,7.6-2.5,9.7
			c0.6,3.3,1.4,6.1,2.5,8.4c1.1,2.3,2.2,4.2,3.4,5.7c1.2,1.8,2.7,3.3,4.6,4.5c0.9,0.9,2,1.4,3.2,1.4c2.1,0.6,4.7-0.5,7.8-3.2
			c1.2-1.2,3-2.9,5.3-5.2c2.3-2.3,4.8-4.7,7.5-7.2c2.7-2.6,5.5-5.2,8.2-7.9c2.7-2.7,5-5.1,6.9-7.2c-0.6,2.4-1,4.7-1.1,6.8
			c-0.2,2.1,0.1,4.1,0.7,5.9c0.3,2.1,0.8,4.2,1.4,6.3c0.6,1.8,1.2,3.8,1.8,6.1c0.6,2.3,1.7,4.2,3.2,5.7c0.6,0.9,1.5,1.5,2.7,1.8
			c0.9,0.3,2.1,0.2,3.7-0.2c1.5-0.5,3.5-1.6,5.9-3.4c1.2-0.9,3.3-2.6,6.2-5c2.9-2.4,6.2-5,9.8-7.9c2.8-2.2,5.7-4.5,8.8-7
			c0.3,1.9,0.6,3.7,0.8,5.4c0.3,1.5,0.7,3.3,1.1,5.4c0.5,2.1,1.3,3.9,2.5,5.4c0.3,0.6,0.8,1.2,1.4,1.8c0.6,0.6,1.1,1.1,1.4,1.6
			c0.3,0.5,0.8,0.8,1.4,1.1c0.3,0.3,0.6,0.3,0.9,0c0.3-0.3,0.6-0.6,0.9-0.9c0.3-0.3,0.8-0.9,1.4-1.8c0.6-1.2,0.9-2,0.9-2.3
			c2.1-4.2,4.8-9.4,8-15.4c3.2-6,6.8-12.4,10.7-19c0.6,4.2,1.4,8.8,2.3,13.6c0.9,4.8,2.3,10.1,4.1,15.8c0.6,1.2,1.1,2.4,1.6,3.6
			c0.5,1.2,1,2.4,1.6,3.6c0.3,0.9,1.1,1.5,2.3,1.8c0.9,0.3,2.2,0.2,3.9-0.2c1.7-0.5,3.7-1.6,6.2-3.4c1.5-0.9,3.8-2.5,6.9-4.8
			c3-2.3,6.5-4.8,10.3-7.7c1.4-1.1,2.9-2.2,4.4-3.3c0.3,2.1,0.8,4.2,1.4,6.3c0.6,1.8,1.2,3.8,1.8,6.1c0.6,2.3,1.7,4.2,3.2,5.7
			l0.9,0.9c0.6,0.6,1.5,0.9,2.7,0.9c2.1,0,5-1.2,8.7-3.6l0.5-0.5l0.5-0.5c2.4-1.8,6.1-4.7,11-8.6c4.9-3.9,10.1-8.1,15.5-12.7
			c2.1-1.5,4.2-3.2,6.2-5c2-1.8,3.9-3.5,5.7-5c0.2-0.2,0.4-0.4,0.6-0.6c-0.1,1.3-0.1,2.5-0.1,3.8v5.4c0.6,3,1.4,6.5,2.3,10.4
			c0.9,3.9,2.6,7.4,5,10.4c2.7,3.3,6.4,5,11,5c5.5-0.6,11.6-4.2,18.3-10.9c6.7-6.6,12.9-13.9,18.7-21.7c6.7-9.1,13.4-19.3,20.1-30.8
			c4-6.6,6.1-11.8,6.4-15.4c0.3-3.6,0-6.2-0.9-7.7v-0.5c-0.6-0.9-1.4-1.7-2.3-2.5c-0.9-0.8-1.4-1.3-1.4-1.6
			c-1.5-1.2-3.4-2.6-5.7-4.3c-2.3-1.7-4.7-3.2-7.3-4.8c-2.6-1.5-5.1-2.8-7.5-3.8c-2.4-1.1-4.4-1.7-5.9-2c-1.2-0.3-2.9,0.2-5,1.4
			c-2.1,1.2-4.4,2.6-6.9,4.1l-5.5-2.7c-2.7-0.9-5.3,0.1-7.8,2.9c-2.4,2.9-4.6,6-6.4,9.3c-1.2,1.8-2.9,5-5,9.5
			c-2.1,4.5-4.6,10.4-7.3,17.7c0,0.6-0.2,1.1-0.5,1.4v0.5c-0.6,1.5-1.2,3.4-1.8,5.7c-0.6,2.3-1.2,4.3-1.8,6.1
			c-0.6,2.4-1.2,5.4-1.8,8.8c0,0.2-0.1,0.4-0.1,0.6c-0.7-0.1-1.6,0.2-2.7,1l-2.7,1.8c-2.1,1.5-4.2,3-6.2,4.5c-2,1.5-3.9,3-5.7,4.5
			c-0.6,0.3-1.2,0.8-1.8,1.4h-0.5c-0.3,0.3-1.1,0.8-2.3,1.4v0.5c-0.3,0.3-0.6,0.5-0.9,0.5c-0.6,0.3-1,0.5-1.1,0.7
			c-0.2,0.2-0.5,0.4-1.1,0.7c-0.3,0.3-0.6,0.5-0.9,0.7c-0.3,0.2-0.6,0.4-0.9,0.7c-0.3,0-0.5,0.1-0.5,0.2c0,0.2-0.2,0.2-0.5,0.2
			c-0.3,0-0.5,0.1-0.5,0.2c0,0.2-0.2,0.2-0.5,0.2l-0.5,0.5h-0.5c-0.3,0-0.5,0.2-0.5,0.5H704l-0.5,0.5h-0.5h-0.5h-0.5h-0.5v-0.5h-0.5
			v-0.5v-0.5c0.6-3.3,2.5-9.1,5.7-17.2c3.2-8.1,7.4-17.5,12.6-28.1c1.8-3.6,3.7-7.3,5.5-11.1c1.8-3.8,3.7-7.6,5.5-11.5
			c5.5-11.2,9.7-19.8,12.8-25.8c3-6,5.4-10.5,7.1-13.4c1.7-2.9,2.7-4.8,3.2-5.7c0.5-0.9,1-1.8,1.6-2.7c0.9-1.5,1.3-2.9,1.1-4.3
			c-0.2-1.4-0.5-2.6-1.1-3.8c-0.6-1.2-1.4-2.3-2.3-3.2c-4.3-3-8.8-5.6-13.7-7.7c-2.4-1.2-4.9-2-7.3-2.3c0,1.2-0.2,2.7-0.5,4.5
			c-0.3,1.5-0.8,3.6-1.6,6.1c-0.8,2.6-2.1,5.5-3.9,8.8l-1.4,2.7c-1.5,3-3.3,6.6-5.3,10.9c-2,4.2-5.4,11.3-10.3,21.3
			c-0.6,1.5-1.2,2.9-1.8,4.1c-0.6,1.2-1.2,2.6-1.8,4.1c-2.7,4.5-4.9,8.9-6.4,13.1c-7,15.1-12.8,28.6-17.4,40.5
			c-2.3,6-3.9,10.9-4.9,14.9c-3.8,2.5-6.9,4.4-9.3,5.7c-2.1,0.6-3.7,0.8-4.6,0.5c-1.8-0.6-3.4-2.2-4.6-4.8c-1.2-2.6-2.1-5.4-2.7-8.4
			c-0.6-3-1.1-6-1.4-8.8c-0.3-2.9-0.5-5-0.5-6.6c0-0.9,0.2-1.4,0.5-1.4h0.9c9.4-2.4,17.4-6.8,24-13.1c6.5-6.3,11.5-11.6,14.9-15.8
			c0.6-0.9,1.1-1.7,1.6-2.3c0.5-0.6,0.8-1.2,1.1-1.8c1.5-2.7,1.8-5.4,0.9-8.1c-0.6-1.2-1.2-2.3-1.8-3.2c-2.1-1.5-4.3-2.9-6.6-4.3
			c-2.3-1.4-4.5-2.5-6.6-3.4c-2.4-1.2-4.9-2-7.3-2.3c-1.2,1.5-2.4,2.9-3.7,4.1c-1.2,1.2-2.7,2.6-4.6,4.1c-1.8,1.5-3.8,3.2-5.9,5
			c0-0.9-0.2-1.7-0.5-2.5c-0.3-0.7-0.6-1.4-0.9-2c-0.6-0.6-1.1-1.2-1.4-1.8c-3-2.1-5.9-3.7-8.7-4.8c-2.7-1.1-5.3-1.9-7.8-2.5
			c-0.6-0.3-1.1-0.5-1.4-0.5c-0.3,0-0.8-0.1-1.4-0.5c-0.6,0-1.1-0.1-1.4-0.5c0,1.5-0.2,3.2-0.5,5c-0.6,1.5-1.3,3.5-2.1,6.1
			c-0.8,2.6-2.1,5.5-3.9,8.8c-0.6,1.5-1.1,2.7-1.6,3.6c-0.5,0.9-1.1,2.1-2.1,3.6c-7.9,14.5-14.4,27.3-19.4,38.5
			c-2.3,5-4,9.2-5.2,12.7c-0.7,0.5-1.4,1.1-2.1,1.6c-3.5,2.6-6.6,4.7-9.4,6.3c-2.7,1.7-5,2.8-6.6,3.4c-1.7,0.6-2.4,0.3-2.1-0.9
			c0.9-5.4,2.7-11.4,5.3-17.9c2.6-6.5,5.5-12.7,8.7-18.8c3.2-6,6.2-11.4,8.9-16.1c2.7-4.7,4.6-7.8,5.5-9.3c0.9-1.5,1.3-2.9,1.1-4.3
			c-0.2-1.4-0.5-2.6-1.1-3.8c-0.6-1.2-1.4-2.3-2.3-3.2c-2.4-1.8-4.8-3.3-7.1-4.5c-2.3-1.2-4.5-2.3-6.6-3.2c-2.4-0.9-4.9-1.7-7.3-2.3
			V432.4z M576.2,461.4c-1.7,3-3.4,6.2-5.3,9.5c-1.8,3.3-3.6,6.6-5.3,10c-1.7,3.3-3,6.3-3.9,9.1c-2.1,2.1-4.7,4.6-7.5,7.5
			c-2.9,2.9-5.6,5.5-8.2,7.9c-2.6,2.4-5,4.5-7.1,6.3c-2.1,1.8-3.4,2.7-3.7,2.7c-0.6,0.3-0.9,0.3-0.9,0c0-0.3,0.1-0.7,0.2-1.4
			c0.1-0.6,0.7-1.7,1.6-3.2c0.6-0.9,2-2.9,4.1-6.1c2.1-3.2,4.7-6.8,7.8-10.9c3-4.1,6.2-8.4,9.6-13.1c3.4-4.7,6.5-8.9,9.6-12.7
			c3-3.8,5.8-6.9,8.2-9.5c2.4-2.6,4.1-3.8,5-3.8C579.3,455.8,577.9,458.4,576.2,461.4z M746,517.5l0.9-2.7c4.3-8.7,8.7-18,13.3-27.6
			c4.6-9.7,8.2-17.7,11-24l7.3-14.5c0.3-1.2,0.8-2.4,1.4-3.6c0.9-1.8,1.2-3.4,0.9-4.8c-0.3-1.4-0.8-2.6-1.4-3.8
			c0.6-0.3,1.1-0.5,1.4-0.5c0.3,0,0.6-0.1,0.9-0.5c0.3,0,0.6-0.1,0.9-0.5c1.5,0.9,2.9,2,4.1,3.2c0.9,1.2,1.6,2.7,2.1,4.5
			c0.5,1.8,0.2,4.4-0.7,7.7c-0.9,3.3-3.4,8.9-7.5,16.7c-4.1,7.9-8.6,15.8-13.5,23.8c-4.9,8-9.4,15-13.5,21c-4.1,6-6.6,8.8-7.5,8.1
			C745.4,520.3,745.4,519.3,746,517.5z M647.5,466.6c0.8-1.4,1.4-2.6,2.1-3.8c1.2-1.5,2.1-2.9,2.7-4.1c0.6-1.2,1.2-2.4,1.8-3.6
			c2.4-2.1,5-4.2,7.8-6.3c2.7-2.1,5.5-4.4,8.2-6.8c-0.3,0.6-0.7,1.3-1.1,2c-0.5,0.8-1,1.4-1.6,2c0,0.3-0.1,0.5-0.2,0.7
			c-0.2,0.2-0.2,0.4-0.2,0.7c-1.8,2.4-3.8,5-5.9,7.7c-1.8,2.4-4.1,5-6.9,7.7c-2.7,2.7-5.8,5.4-9.1,8.1
			C645.9,469.4,646.8,468,647.5,466.6z"/>
		<path class="st1" d="M804,486.6c-2.4,2.7-4.3,6.3-5.5,10.9c-0.9,2.7-1.4,5.4-1.4,8.1c-0.3,2.4-0.2,4.9,0.2,7.5
			c0.5,2.6,1.4,5.1,3,7.5c3.4,5.7,8.9,9.3,16.7,10.6c7.8,1.4,14.7-0.2,20.8-4.8c0.9-0.9,2.5-2.4,4.8-4.5c2.3-2.1,4.6-5,7.1-8.6
			c2.4-3.6,4.6-7.9,6.6-12.9c2-5,3.3-10.6,3.9-17c0.6-8.7,1-16.1,1.1-22.2c0.2-6,0.2-11,0.2-14.9c0-2.7,0.1-4.7,0.5-5.9
			c0.3-2.4,1.2-3.6,2.7-3.6c1.5,0,2.6,1.2,3.2,3.6c0.6,1.5,0.8,2.8,0.5,3.8c-0.3,1.1-0.8,2.2-1.4,3.4c-0.6,1.2-1.4,2.4-2.3,3.6
			c1.8,0.9,3.4,1,4.8,0.2c1.4-0.7,2.4-1.7,3-2.9c1.5-1.5,2.4-3.2,2.5-5c0.2-1.8,0.1-3.5-0.2-5c0-1.5-0.2-2.6-0.5-3.4
			c-0.3-0.8-0.6-1.4-0.9-2l-0.5-0.5v-0.5c-1.2-1.8-2.6-3.1-4.1-3.8c-1.5-0.8-2.9-1.4-4.1-2c-1.8,0-3.7-0.1-5.5-0.5
			c-1.5,0-3.3-0.1-5.3-0.2c-2-0.1-4.2-0.1-6.6,0.2c-5.5,0.9-8.9,3-10.3,6.3c-1.4,3.3-2.1,5.7-2.1,7.2c0,1.5,0.1,5.7,0.2,12.4
			c0.1,6.8,0,14.3-0.5,22.6c-0.5,8.3-1.5,16.5-3.2,24.4c-1.7,8-4.3,13.8-8,17.4l-2.7,1.8c-0.6,0.6-1.5,0.9-2.5,0.9
			c-1.1,0-1.9-0.5-2.5-1.4c-1.5-1.2-1.8-5.4-0.9-12.7c0.9-7.2,4.4-14.9,10.5-23.1c0.9-0.9,1.4-2,1.4-3.2c0-0.6-0.5-1.3-1.4-2
			c-0.9-0.7-2.6-0.8-5-0.2c-3.1,0.9-6.1,2.1-9.1,3.6C808.9,481.8,806.4,483.9,804,486.6z"/>
		<path class="st1" d="M334.7,609.8c0-0.5,0.2-0.9,0.6-1.4c1.5-5.1,1.6-9.3,0.3-12.6c-1.3-3.2-3.2-6-5.8-8.4
			c-0.4-0.5-0.9-0.9-1.7-1.4c-0.7-0.5-1.4-0.8-1.9-1c-0.6-0.2-1.2-0.6-1.9-1c-0.7-0.5-1.6-0.9-2.5-1.4c-0.9-0.5-2.1-0.9-3.6-1.4
			c-0.7,0-1.2-0.1-1.4-0.3c-0.2-0.2-0.6-0.3-1.4-0.3v-0.7c1.8-5.6,3.9-11.3,6.1-17.1c2.2-5.8,4.6-11.7,7.2-17.8
			c6.6-17.2,12.1-31.5,16.5-42.9c4.4-11.4,8-20.6,10.7-27.6c2.8-7,4.8-12.1,6.1-15.4c1.3-3.2,2.3-5.6,3-7c1.8-3.7,2-7.9,0.6-12.6
			c-0.7-1.9-1.7-3.5-2.8-4.9c-5.1-4.6-10.6-8.6-16.5-11.9c-2.9-1.9-5.9-3-8.8-3.5c0,1.9-0.2,4.2-0.5,7c-0.7,5.1-2.9,12.8-6.6,23
			c-1.1,2.8-2.1,5.2-3,7.3c-0.9,2.1-2.3,5.5-4.1,10.1c-1.8,4.7-4.3,11.3-7.4,19.9c-3.1,8.6-7.6,20.6-13.5,35.9
			c-0.7,2.3-1.5,4.4-2.2,6.3c-0.7,1.9-1.5,4-2.2,6.3c-1.5,3.3-2.8,6.5-3.8,9.8c-1.1,3.3-2.4,6.8-3.8,10.5c-1.1,3.7-2.3,7.2-3.6,10.5
			c-1.3,3.3-2.5,6.8-3.6,10.5c-11-0.5-23.4-0.2-37.1,0.7c-13.8,0.9-27,2.6-39.9,4.9c4.8-12.6,9.4-24.8,13.8-36.6
			c4.4-11.9,8.5-22.8,12.4-32.8c3.9-10,7.2-18.6,9.9-25.8c2.8-7.2,4.9-12.4,6.3-15.7c7.3-18.6,10.6-33.5,9.9-44.7
			c-0.7-11.2-7.5-21.2-20.4-30c-18.3-13-34.8-22.6-49.5-28.6c-18.7-7.9-34.7-10.6-47.9-8c-13.2,2.6-24.1,7.7-32.7,15.4
			c-8.6,7.7-15.3,16.6-20.1,26.9c-4.8,10.2-7.9,19.1-9.4,26.5c-1.8,7.4-2.7,16.2-2.5,26.2c0.2,10,1.7,20,4.4,30
			c2.8,10,7,19.3,12.7,27.9c5.7,8.6,13.1,15.2,22.3,19.9c9.2,4.7,17.2,6.9,24.2,6.6c7-0.2,12.8-1.5,17.6-3.8
			c5.5-2.3,10.1-6,13.8-11.2c-9.5-1.4-18.2-4.5-26.1-9.4c-7.9-4.9-14.6-11-20.1-18.5c-5.5-7.4-9.9-15.9-13.2-25.5
			c-3.3-9.5-5-19.2-5-29c-0.4-9.8,1.2-19.7,4.7-29.7c3.5-10,9.4-17.7,17.9-23c8.4-5.3,19.7-7.3,33.8-5.9
			c14.1,1.4,31.6,8.4,52.5,20.9c2.2,1.4,4.9,3.5,8,6.3c3.1,2.8,6.1,5.4,9.1,7.7c-1.5,4.7-3.4,10.6-5.8,17.8
			c-2.4,7.2-5.8,16.2-10.2,26.9c-7.3,19.5-15.4,40.5-24.2,62.8c-8.8,22.3-17.4,44.9-25.9,67.7c-7.7,3.3-14.7,6.9-20.9,10.8
			c-6.2,4-11.7,8-16.5,12.2c-7.3,5.1-12.7,9.9-16.2,14.3c-3.5,4.4-6,7.8-7.4,10.1l-0.6,0.7c-4,7-6.4,13.2-7.1,18.5
			c-0.7,5.4-1.1,8.7-1.1,10.1v1.4c0,7,1.3,12.6,3.9,16.7c1.5,1.9,2.9,3.5,4.4,4.9c1.1-8.4,4.2-16.3,9.4-23.7
			c1.1-1.9,2.6-3.8,4.4-5.9c1.8-2.1,3.5-3.8,5-5.2c0.7-0.5,1.3-0.9,1.7-1.4c0.4-0.5,0.9-0.9,1.6-1.4c0.7-0.9,1.3-1.4,1.7-1.4
			c3.7-3.7,7.3-7,11-9.8c3.7-2.8,7.5-5.6,11.6-8.4c-8.8,26.1-15.4,49.2-19.8,69.4c-4.4,20.2-4.6,34.3-0.5,42.2
			c0.4,1.9,1.3,3.7,2.8,5.6c2.6,4.2,6,8.1,10.5,11.9c3.7,3.3,6,4.4,6.9,3.5c0.9-0.9,1-2.6,0.3-4.9c-0.4-2.8-0.6-5.5-0.8-8
			c-0.2-2.6-0.3-4.3-0.3-5.2c0-0.9,0-2,0-3.1c0-1.2,0.2-2.4,0.5-3.8c0.4-6.5,1.4-13.3,3-20.2c1.7-7,3.8-14.4,6.3-22.3
			c3.7-7.9,8.4-19.8,14.3-35.6c5.9-15.8,12.5-33,19.8-51.6c15.4-6,30.3-10.7,44.8-14c14.5-3.2,27.4-5.6,38.8-7
			c0,0.9-0.4,1.9-1.1,2.8c-4,10.7-7.5,20.1-10.5,28.3c-2.9,8.1-4.2,12-3.9,11.5c-7.3,22.3-11.2,39.3-11.6,50.9
			c-0.4,11.6,0.6,19.1,2.8,22.3c2.6,3.7,5.1,6.7,7.7,9.1c2.6,2.3,4.8,4.2,6.6,5.6c2.2,1.4,5.4,1.6,9.6,0.7
			c4.2-0.9,8.7-5.4,13.5-13.3c1.5-1.9,4-6.5,7.7-14c3.7-7.4,7.7-15.9,12.1-25.5c4.4-9.5,8.8-19.5,13.2-30c4.4-10.5,7.9-20.1,10.5-29
			C334.6,611,334.7,610.3,334.7,609.8z M319.3,614.7c0,0.5-0.1,0.8-0.3,1c-0.2,0.2-0.3,0.6-0.3,1c-0.7,1.9-1.5,3.6-2.2,5.2
			c-0.7,1.6-1.5,3.6-2.2,5.9c-0.7,2.3-1.7,4.8-3,7.3c-1.3,2.6-2.3,5-3,7.3c-2.2,6.1-4.6,11.8-7.1,17.1c-2.6,5.4-4.9,9.8-6.9,13.3
			c-2,3.5-3.9,5.5-5.5,5.9c-1.7,0.5-2.7-1.2-3-4.9c-0.4-1.9,0.7-7,3.3-15.4c2.6-8.4,5.9-18.6,9.9-30.7c0-0.9,0.4-2.3,1.1-4.2
			c1.8-4.6,3.5-9.4,5-14.3c1.5-4.9,3.1-9.9,4.9-15l1.1-2.8c5.1,3.3,8,7.2,8.5,11.9C320.2,608.2,320.1,611.9,319.3,614.7z"/>
		<path class="st1" d="M639.8,554c-5.5-0.9-9.8-3.7-12.9-8.5c0-0.5-0.2-0.9-0.5-1.1c-0.3-0.2-0.6-0.2-1,0.1
			c1.4,4.5,3.6,8.4,6.6,11.7c2.5,2.8,5.8,5,10,6.7c4.2,1.7,9.7,1.6,16.5-0.2c5.8-1.5,10-3.8,12.6-7c2.6-3.2,3.8-5.5,3.7-7
			c-6.5,2.9-12.8,4.8-18.8,5.7C650.6,555,645.3,554.9,639.8,554z"/>
		<path class="st1" d="M1016.5,588.8c-0.2-1.1-0.4-2-0.7-2.9c-0.3-1.2-0.6-2.1-0.9-2.7c-1.8-2.7-3.8-5.1-5.9-7c-2.1-2-4-3.5-5.5-4.8
			c-1.8-1.5-3.7-2.4-5.5-2.7c-1.8-0.3-3-0.5-3.7-0.5H993c-3.4,0-6.7,0-10.1,0c-3.4,0-6.7,0.2-10.1,0.5h-7.8c-4,0.3-7.2,0.3-9.6,0
			c-2.4-0.3-4.4-0.7-5.9-1.4c-1.8-0.6-3.4-1.1-4.6-1.4c-0.3,0.3-0.5,0.6-0.5,0.9v3.2c-0.3,2.1-0.5,4.8-0.5,8.1c0,3.3,0.5,6.6,1.4,10
			c0.3,1.2,0.9,2.4,1.8,3.6c1.8,2.4,4.3,3.5,7.3,3.2c0.6,0,1.1-0.1,1.6-0.2c0.5-0.1,1.1-0.2,2.1-0.2c1.5,0,4.1-0.5,7.8-1.6
			c3.7-1.1,7.6-1.7,11.9-2c0.3,0,1.3-0.5,3-1.6c1.7-1.1,3.5-2.3,5.5-3.6c2-1.4,3.8-2.6,5.5-3.8c1.7-1.2,2.7-1.8,3-1.8
			c-5.2,5.1-11.5,11-19,17.7c-7.5,6.6-14.8,13.2-21.9,19.7c-6,5.4-11.4,10.4-16.3,15c1.8-2.1,2.4-3.7,1.6-4.7
			c-0.9-0.9-2.1-0.8-3.7,0.5l-2.7,1.8c-3.7,2.7-8.4,5.8-14.2,9.3c-5.8,3.5-11.4,6.5-16.9,9.1c-5.5,2.6-10.3,4.3-14.4,5.2
			c-4.1,0.9-6.3,0.3-6.6-1.8c-0.6-4.2,0.6-8.7,3.7-13.4c3-4.7,5.3-8.7,6.9-12c3.7-1.8,7.6-3.8,11.9-6.1c4.3-2.3,8.3-4.6,12.1-7
			c3.8-2.4,7.2-4.8,10.1-7c2.9-2.3,5-4.3,6.2-6.1c2.1-3,2.5-6.3,1.1-9.7c-1.4-3.5-3.4-6.6-5.9-9.3c-2.6-2.7-5.3-5.1-8.2-7
			c-2.9-2-4.6-3.2-5.3-3.8c-3.7-2.1-7.6-3.9-11.9-5.4c-2.1-0.9-4.1-1.5-5.9-1.8c0.3,1.5,0.1,3.2-0.5,5c-1.2,3.9-3.7,8.8-7.3,14.5
			c-2.1,3.3-5.2,8-9.1,14c-4,6-7.8,12.6-11.7,19.7c-3.4,6.3-6.3,12.7-8.9,19c-0.1-0.3-0.2-0.5-0.5-0.8c-0.3-0.3-1.5-0.1-3.7,0.5
			c-0.9,0.6-1.8,1.1-2.7,1.4c-2.1,1.5-4.2,3-6.2,4.5c-2,1.5-4,3-6.2,4.5c-0.6,0.6-1.2,1.1-1.8,1.4c-0.9,0.9-1.7,1.5-2.3,1.8
			c-0.3,0-0.5,0.1-0.5,0.2c0,0.2-0.2,0.2-0.5,0.2v0.5c-0.6,0.3-1,0.5-1.1,0.5c-0.2,0-0.5,0.2-1.1,0.5v0.5c-0.6,0-1.2,0.3-1.8,0.9
			l-0.9,0.5c-0.3,0.3-0.6,0.5-0.9,0.5c-0.3,0.3-0.6,0.5-0.9,0.5l-0.5,0.5h-0.9v0.5h-0.5h-0.5H824h-0.5h-0.5h-0.5v-0.5v-0.5
			c0.6-3.3,2.5-9.1,5.7-17.4c3.2-8.3,7.4-17.7,12.6-28.3c1.8-3.6,3.7-7.2,5.5-10.9c1.8-3.6,3.7-7.5,5.5-11.8
			c5.5-11.2,10.1-20.3,13.7-27.4c3.7-7.1,6.6-12.8,8.9-17.2c2.3-4.4,4-7.5,5-9.5c1.1-2,1.9-3.4,2.5-4.3c1.5-2.4,1.7-5.1,0.5-8.1
			c-0.6-1.2-1.4-2.3-2.3-3.2c-4.3-3-8.8-5.6-13.7-7.7c-2.4-1.2-4.9-2-7.3-2.3c0,1.5-0.2,3.2-0.5,5c-0.3,1.5-0.8,3.5-1.6,5.9
			c-0.8,2.4-2.1,5.3-3.9,8.6c-0.9,1.8-1.8,3.3-2.5,4.5c-0.8,1.2-1.9,3.2-3.4,5.9c-1.5,2.7-3.6,6.8-6.2,12.2
			c-2.6,5.4-6.2,13.1-10.7,23.1l-4.1,8.1v0.9c-2.1-3.6-4.8-6.3-8-8.1c-3.2-1.8-5.9-3-8-3.6c-1.2-0.6-2.4-0.9-3.4-0.9
			c-1.1,0-1.9-0.1-2.5-0.5c-1.2,0-2.1-0.1-2.7-0.5c0.6,0.6,0.6,1.5,0,2.7c-0.6,1.2-1.2,2.4-1.8,3.6c-0.9,1.2-2,2.7-3.2,4.5
			c-0.6,0.9-2.3,3.1-5,6.6c-2.7,3.5-5.9,7.8-9.6,12.9c-3.7,5.1-7.5,10.6-11.7,16.5s-7.9,11.6-11.4,17.2c-1,1.6-1.9,3.1-2.8,4.6
			l-2.3,1.5c-3.7,2.7-7.3,5.3-11,7.7c-3.7,2.4-6.9,4.5-9.6,6.3c-2.7,1.8-5,3-6.6,3.6c-1.7,0.6-2.5,0.2-2.5-1.4
			c1.2-5.4,3.4-11.4,6.4-17.9c3-6.5,6.2-12.7,9.6-18.8c3.4-6,6.6-11.4,9.6-16.1c3-4.7,5-7.8,5.9-9.3c1.5-2.7,1.8-5.4,0.9-8.1
			c-0.6-1.2-1.4-2.3-2.3-3.2c-2.1-1.5-4.3-2.9-6.6-4.3c-2.3-1.4-4.5-2.5-6.6-3.4c-2.4-1.2-4.9-2-7.3-2.3c-2.4,1.5-4.9,2.9-7.3,4.1
			c-2.1,1.2-4.3,2.6-6.6,4.1c-2.3,1.5-4.3,3.2-6.2,5c-0.6-1.8-1.2-3.3-1.8-4.5l-1.8-1.8c-3-2.1-6.1-3.8-9.1-5
			c-3-1.2-5.6-2.1-7.8-2.7c-0.6,0-1.1-0.1-1.4-0.2c-0.3-0.1-0.8-0.2-1.4-0.2c-0.6,0-1.1-0.1-1.4-0.5c0,1.5-0.2,3.2-0.5,5
			c-0.6,3.6-2.1,8.6-4.6,14.9c-0.6,1.2-1.1,2.3-1.6,3.4c-0.5,1.1-1,2.3-1.6,3.8c-6.4,14.5-11.7,27.2-16,38.3
			c-1.6,4.1-2.8,7.6-3.7,10.7c-0.5,0.3-0.9,0.7-1.4,1c-3.5,2.6-6.6,4.7-9.4,6.3c-2.7,1.7-5,2.8-6.6,3.4c-1.7,0.6-2.4,0.3-2.1-0.9
			c0.9-5.4,2.7-11.4,5.3-17.9c2.6-6.5,5.5-12.7,8.7-18.8c3.2-6,6.2-11.4,8.9-16.1c2.7-4.7,4.6-7.8,5.5-9.3c0.9-1.5,1.3-2.9,1.1-4.3
			c-0.2-1.4-0.5-2.6-1.1-3.8c-0.6-1.2-1.4-2.3-2.3-3.2c-2.4-1.8-4.8-3.3-7.1-4.5c-2.3-1.2-4.5-2.3-6.6-3.2c-2.4-0.9-4.9-1.7-7.3-2.3
			v2.3c0,1.8-0.5,4.2-1.4,7.2c-2.1-3.6-4.8-6.3-8-8.1c-3.2-1.8-5.9-3-8-3.6c-2.4-0.9-4.4-1.4-5.9-1.4h-2.7c0.6,0.6,0.6,1.4,0,2.5
			c-0.6,1.1-1.2,2.2-1.8,3.4c-0.9,1.2-2,2.7-3.2,4.5c-0.6,0.9-2.3,3.1-5,6.6c-2.7,3.5-5.9,7.8-9.6,12.9c-3.7,5.1-7.5,10.6-11.7,16.5
			c-4.1,5.9-7.9,11.6-11.4,17.2c-0.5,0.8-0.9,1.5-1.4,2.2l-0.8,0.5c-3.7,2.7-7.3,5.3-11,7.7c-3.7,2.4-6.9,4.5-9.6,6.3
			c-2.7,1.8-5,3-6.6,3.6c-1.7,0.6-2.5,0.2-2.5-1.4c1.2-5.4,3.4-11.4,6.4-17.9c3-6.5,6.2-12.7,9.6-18.8c3.4-6,6.6-11.4,9.6-16.1
			c3-4.7,5-7.8,5.9-9.3c1.5-2.7,1.8-5.4,0.9-8.1c-0.6-1.2-1.4-2.3-2.3-3.2c-2.1-1.5-4.3-2.9-6.6-4.3c-2.3-1.4-4.5-2.5-6.6-3.4
			c-2.4-1.2-4.9-2-7.3-2.3c-2.4,1.5-4.9,2.9-7.3,4.1c-2.1,1.2-4.3,2.6-6.6,4.1c-2.3,1.5-4.3,3.2-6.2,5c-0.6-1.8-1.2-3.3-1.8-4.5
			l-1.8-1.8c-3-2.1-6.1-3.8-9.1-5c-3-1.2-5.6-2.1-7.8-2.7c-0.6,0-1.1-0.1-1.4-0.2c-0.3-0.1-0.8-0.2-1.4-0.2c-0.6,0-1.1-0.1-1.4-0.5
			c0,1.5-0.2,3.2-0.5,5c-0.6,3.6-2.1,8.6-4.6,14.9c-0.6,1.2-1.1,2.3-1.6,3.4c-0.5,1.1-1,2.3-1.6,3.8c-6.4,14.5-11.7,27.2-16,38.3
			c-1.8,4.8-3.2,8.8-4.1,12.2c-2.3,1.5-4.5,3.1-6.8,4.6c-4.7,3.2-8.5,5.5-11.2,7c-2.1,0.6-3.7,0.8-4.6,0.5c-1.8-0.6-3.4-2.2-4.6-4.8
			c-1.2-2.6-2.1-5.4-2.7-8.4c-0.6-3-1.1-6-1.4-8.8c-0.3-2.9-0.5-5-0.5-6.6c0-0.9,0.2-1.4,0.5-1.4l0.9,0c9.4-2.4,17.4-6.8,24-13.1
			c6.6-6.3,11.5-11.6,14.9-15.8c0.6-0.9,1.1-1.7,1.6-2.3c0.5-0.6,0.8-1.2,1.1-1.8c1.5-2.7,1.8-5.4,0.9-8.1c-0.6-1.2-1.2-2.3-1.8-3.2
			c-2.1-1.5-4.3-2.9-6.6-4.3c-2.3-1.4-4.5-2.5-6.6-3.4c-2.4-1.2-4.9-2-7.3-2.3c-1.2,1.5-2.4,2.9-3.7,4.1c-1.2,1.2-2.7,2.6-4.6,4.1
			c-1.8,1.5-3.8,3.2-5.9,5c0-0.9-0.2-1.7-0.5-2.5c-0.3-0.7-0.6-1.4-0.9-2c-0.6-0.6-1.1-1.2-1.4-1.8c-3.1-2.1-5.9-3.7-8.7-4.8
			c-2.7-1.1-5.3-1.9-7.8-2.5c-0.6-0.3-1.1-0.5-1.4-0.5c-0.3,0-0.8-0.1-1.4-0.5c-0.6,0-1.1-0.1-1.4-0.5c0,1.5-0.2,3.2-0.5,5
			c-0.6,1.5-1.3,3.5-2.1,6.1c-0.8,2.6-2.1,5.5-3.9,8.8c-0.6,1.5-1.1,2.7-1.6,3.6c-0.5,0.9-1.1,2.1-2.1,3.6
			c-7.9,14.5-14.4,27.3-19.4,38.5c-0.4,1-0.8,1.9-1.2,2.8c-3.1,2.1-6.7,4.5-11,7c-5.8,3.5-11.4,6.5-16.9,9.1
			c-5.5,2.6-10.3,4.3-14.4,5.2c-4.1,0.9-6.3,0.3-6.6-1.8c-0.6-4.2,0.6-8.7,3.7-13.4c3-4.7,5.3-8.7,6.9-12c3.7-1.8,7.6-3.8,11.9-6.1
			c4.3-2.3,8.3-4.6,12.1-7c3.8-2.4,7.2-4.8,10.1-7c2.9-2.3,5-4.3,6.2-6.1c2.1-3,2.5-6.3,1.1-9.7c-1.4-3.5-3.4-6.6-5.9-9.3
			c-2.6-2.7-5.3-5.1-8.2-7c-2.9-2-4.7-3.2-5.3-3.8c-3.7-2.1-7.6-3.9-11.9-5.4c-2.1-0.9-4.1-1.5-5.9-1.8c0.3,1.5,0.1,3.2-0.5,5
			c-1.2,3.9-3.7,8.8-7.3,14.5c-2.1,3.3-5.2,8-9.1,14c-4,6-7.8,12.6-11.7,19.7c-3.8,7.1-7.1,14.2-9.8,21.3c-2.7,7.1-4,13.1-3.7,17.9
			c0.3,2.1,0.8,4.2,1.4,6.3c0.6,1.8,1.3,3.8,2.1,5.9c0.8,2.1,1.8,3.9,3,5.4c0.3,0.6,0.9,1.1,1.8,1.4c0.6,0.3,1.5,0.5,2.5,0.7
			c1.1,0.1,2.4-0.1,3.9-0.7v-0.5c12.5-5.1,24.6-11.2,36.3-18.1c7.6-4.5,14.8-9.2,21.5-14.1c-1.7,4.5-2.5,7.9-2.5,10
			c0.3,2.1,0.6,4.1,0.9,5.9c0.3,1.5,0.7,3.3,1.1,5.4c0.5,2.1,1.3,3.9,2.5,5.4c0.3,0.6,0.8,1.2,1.4,1.8c0.6,0.6,1.1,1.1,1.4,1.6
			c0.3,0.5,0.8,0.8,1.4,1.1c0.3,0.3,0.6,0.3,0.9,0c0.3-0.3,0.6-0.6,0.9-0.9c0.3-0.3,0.8-0.9,1.4-1.8c0.6-1.2,0.9-2,0.9-2.3
			c2.1-4.2,4.8-9.3,8-15.4c3.2-6,6.8-12.4,10.8-19c0.6,4.2,1.4,8.8,2.3,13.6c0.9,4.8,2.3,10.1,4.1,15.8c0.6,1.2,1.1,2.4,1.6,3.6
			c0.5,1.2,1,2.4,1.6,3.6c0.3,0.9,1.1,1.5,2.3,1.8c0.9,0.3,2.2,0.2,3.9-0.2c1.7-0.5,3.7-1.6,6.2-3.4c1.5-0.9,3.8-2.5,6.9-4.8
			c3-2.3,6.5-4.8,10.3-7.7c3.8-2.9,7.9-6,12.3-9.5c0.1-0.1,0.2-0.2,0.3-0.2c0,0.6,0,1.2,0.1,1.8c0.3,2.1,0.8,4.1,1.4,5.9
			c0.6,1.5,1.1,3.3,1.6,5.4c0.5,2.1,1.3,3.9,2.5,5.4c0.3,0.6,0.8,1.2,1.4,1.8c0.6,0.6,1.1,1.1,1.6,1.6c0.5,0.5,1,0.8,1.6,1.1
			c0.3,0.3,0.6,0.3,0.9,0c0.3-0.3,0.6-0.6,0.9-0.9c0.3-0.3,0.8-0.9,1.4-1.8c0-0.9,0.3-1.7,0.9-2.3c1.8-3.9,4.1-8.8,6.9-14.7
			c2.7-5.9,5.6-12,8.5-18.3c2.9-6.3,5.7-12.4,8.5-18.1c2.7-5.7,5-10.7,6.9-14.9c0.6-1.5,1.2-2.9,1.8-4.1c0.6-1.2,1.2-2.4,1.8-3.6
			c2.4-1.8,5.9-4.1,10.3-6.8c4.4-2.7,8.2-4.8,11.2-6.3c-0.6,1.5-1.5,2.9-2.7,4.1c-1.8,3.3-4.4,7.8-7.8,13.4
			c-3.4,5.6-6.6,11.5-9.8,17.9c-3.2,6.3-5.9,12.7-8,19c-2.1,6.3-2.9,11.9-2.3,16.7c0,2.1,0.3,4.2,0.9,6.3c0.6,1.8,1.2,3.8,1.8,6.1
			c0.6,2.3,1.5,4.2,2.7,5.7c0.3,0.9,1.1,1.5,2.3,1.8c0.9,0.3,2.2,0.2,3.9-0.2c1.7-0.5,3.7-1.6,6.2-3.4c1.5-0.9,3.7-2.5,6.6-4.8
			c2.9-2.3,6.2-4.8,10.1-7.7c3.8-2.9,7.8-6,12.1-9.5c1-0.8,2-1.6,3-2.5c-0.1,0.3-0.3,0.6-0.4,0.8c-2,4.4-2.8,7.6-2.5,9.7
			c0.6,3.3,1.4,6.1,2.5,8.4c1.1,2.3,2.2,4.2,3.4,5.7c1.2,1.8,2.7,3.3,4.6,4.5c0.9,0.9,2,1.4,3.2,1.4c2.1,0.6,4.7-0.5,7.8-3.2
			c1.2-1.2,3-2.9,5.3-5.2c2.3-2.3,4.8-4.7,7.5-7.2c2.7-2.6,5.5-5.2,8.2-7.9c2.7-2.7,5-5.1,6.9-7.2c-0.6,2.4-1,4.7-1.1,6.8
			c-0.2,2.1,0.1,4.1,0.7,5.9c0.3,2.1,0.8,4.2,1.4,6.3c0.6,1.8,1.2,3.8,1.8,6.1c0.6,2.3,1.7,4.2,3.2,5.7c0.6,0.9,1.5,1.5,2.7,1.8
			c0.9,0.3,2.1,0.2,3.7-0.2c1.5-0.5,3.5-1.6,5.9-3.4c1.2-0.9,3.3-2.6,6.2-5c2.9-2.4,6.2-5,9.8-7.9c2.7-2.1,5.5-4.4,8.4-6.7
			c0,0.7,0,1.4,0.1,2c0.3,2.1,0.8,4.1,1.4,5.9c0.6,1.5,1.1,3.3,1.6,5.4c0.5,2.1,1.3,3.9,2.5,5.4c0.3,0.6,0.8,1.2,1.4,1.8
			c0.6,0.6,1.1,1.1,1.6,1.6c0.5,0.5,1,0.8,1.6,1.1c0.3,0.3,0.6,0.3,0.9,0c0.3-0.3,0.6-0.6,0.9-0.9c0.3-0.3,0.8-0.9,1.4-1.8
			c0-0.9,0.3-1.7,0.9-2.3c1.8-3.9,4.1-8.8,6.9-14.7c2.7-5.9,5.6-12,8.5-18.3c2.9-6.3,5.7-12.4,8.5-18.1c2.7-5.7,5-10.7,6.9-14.9
			c0.6-1.5,1.2-2.9,1.8-4.1c0.6-1.2,1.2-2.4,1.8-3.6c2.4-1.8,5.9-4.1,10.3-6.8c4.4-2.7,8.2-4.8,11.2-6.3c-0.6,1.5-1.5,2.9-2.7,4.1
			c-1.8,3.3-4.4,7.8-7.8,13.4c-3.4,5.6-6.6,11.5-9.8,17.9c-3.2,6.3-5.9,12.7-8,19c-2.1,6.3-2.9,11.9-2.3,16.7c0,2.1,0.3,4.2,0.9,6.3
			c0.6,1.8,1.2,3.8,1.8,6.1c0.6,2.3,1.5,4.2,2.7,5.7c0.3,0.9,1.1,1.5,2.3,1.8c0.9,0.3,2.2,0.2,3.9-0.2c1.7-0.5,3.7-1.6,6.2-3.4
			c1.5-0.9,3.7-2.5,6.6-4.8c2.9-2.3,6.2-4.8,10.1-7.7c3.8-2.9,7.8-6,12.1-9.5c1.8-1.4,3.5-2.8,5.2-4.3c-1.7,4-2.5,7-2.2,9
			c0.6,3,1.5,5.7,2.5,7.9c1.1,2.3,2.2,4.2,3.4,5.7c1.2,1.8,2.7,3.5,4.6,5c0.9,0.9,2,1.4,3.2,1.4c2.1,0.6,4.7-0.5,7.8-3.2
			c1.2-1.2,3.2-3.2,5.9-5.9c2.7-2.7,5.6-5.6,8.7-8.6c3-3,6-6,8.9-8.8c2.9-2.9,5.1-5.1,6.6-6.6c-1.2,3.3-2.1,6.3-2.5,8.8
			c-0.5,2.6-0.7,4.6-0.7,6.1c0.3,2.1,0.8,4.2,1.4,6.3c0.6,1.8,1.3,3.8,2.1,5.9c0.8,2.1,1.9,3.9,3.4,5.4l0.9,0.9
			c0.6,0.6,1.5,0.9,2.7,0.9c0.9,0,2.1-0.2,3.4-0.7c1.4-0.5,3.1-1.4,5.3-2.9h0.5v-0.5c0.3,0,0.5-0.1,0.5-0.5c2.4-1.5,6.1-4.2,11-8.1
			c4.9-3.9,10.1-8.3,15.5-13.1c2.1-1.5,4.2-3.1,6.2-4.8c2-1.7,3.9-3.4,5.7-5.2c0.6-0.5,1.1-1,1.5-1.5c-2.5,6.7-3.6,12.4-3.3,17
			c0.3,2.1,0.8,4.2,1.4,6.3c0.6,1.8,1.3,3.8,2.1,5.9c0.8,2.1,1.8,3.9,3,5.4c0.3,0.6,0.9,1.1,1.8,1.4c0.6,0.3,1.4,0.5,2.5,0.7
			c1.1,0.1,2.4-0.1,3.9-0.7v-0.5c12.5-5.1,24.6-11.2,36.3-18.1c11.3-6.7,21.7-13.9,31.2-21.4c-0.2,0.2-0.5,0.5-0.8,0.7
			c-5.6,5.3-9.1,9-10.3,11.1c0,0.3-0.1,0.6-0.2,0.9c-0.1,0.3-0.2,0.6-0.2,0.9c-0.3,2.1-0.6,4.1-0.9,5.9c-0.3,1.8-0.5,3.7-0.7,5.7
			c-0.2,2,0.1,4,0.7,6.1c0,0.3,0.2,0.8,0.5,1.4c0.3,0.6,0.5,1.1,0.5,1.4c0,0.3,0.3,0.8,0.9,1.4c0,0.9,0.9,1.4,2.7,1.4
			c9.8-0.3,20.1-0.5,31.1-0.5c11,0,20,0,27,0h2.7c1.8,0,2.9-0.1,3.2-0.5c0.3-0.3,0.5-0.6,0.5-0.9c0-0.6-0.2-1.3-0.5-2
			c-0.3-0.7-0.6-1.4-0.9-2l-0.9-1.8c-2.7-3.6-5.3-6.5-7.8-8.6c-1.5-1.2-3.2-2.4-5-3.6c-1.5-0.9-5-1.1-10.5-0.7
			c-5.5,0.5-11.1,0.4-16.9-0.2c4.3-3.6,8.8-7.4,13.7-11.3c4.9-3.9,9.7-7.8,14.4-11.8c4.7-3.9,9-7.5,12.8-10.9
			c3.8-3.3,6.6-5.9,8.5-7.7c3.3-3,5.9-5.4,7.5-7.2c1.7-1.8,3.1-3.2,4.3-4.1l2.7-2.7c1.2-1.2,2-2.1,2.3-2.7
			C1016.4,590.9,1016.7,589.9,1016.5,588.8z M913.1,590.5c2.1,1.5,3.7,3.1,4.6,4.8c0.9,1.7,0.9,3.2,0,4.8c-0.6,2.4-3,4.9-7.3,7.5
			c-4.3,2.6-8.7,5.1-13.3,7.5C903.2,605,908.5,596.9,913.1,590.5z M387.4,593.9c2.1,1.5,3.7,3.1,4.6,4.8c0.9,1.7,0.9,3.2,0,4.8
			c-0.6,2.4-3,4.9-7.3,7.5c-4.3,2.6-8.7,5.1-13.3,7.5C377.5,608.4,382.9,600.3,387.4,593.9z M441.9,613.3c0.9-1.5,1.8-2.9,2.5-4.3
			c0.8-1.4,1.4-2.6,2.1-3.8c1.2-1.5,2.1-2.9,2.7-4.1c0.6-1.2,1.2-2.4,1.8-3.6c2.4-2.1,5-4.2,7.8-6.3c2.7-2.1,5.5-4.4,8.2-6.8
			c-0.3,0.6-0.7,1.3-1.1,2c-0.5,0.8-1,1.4-1.6,2c0,0.3-0.1,0.5-0.2,0.7c-0.2,0.2-0.2,0.4-0.2,0.7c-1.8,2.4-3.8,5-5.9,7.7
			c-1.8,2.4-4.1,5-6.9,7.7C448.3,607.9,445.3,610.6,441.9,613.3z M634.9,600.8c-1.7,3-3.4,6.2-5.3,9.5c-1.8,3.3-3.6,6.6-5.3,10
			c-1.7,3.3-3,6.3-3.9,9.1c-2.1,2.1-4.6,4.6-7.5,7.5c-2.9,2.9-5.6,5.5-8.2,7.9c-2.6,2.4-5,4.5-7.1,6.3c-2.1,1.8-3.4,2.7-3.7,2.7
			c-0.6,0.3-0.9,0.3-0.9,0c0-0.3,0.1-0.7,0.2-1.4c0.1-0.6,0.7-1.7,1.6-3.2c0.6-0.9,2-2.9,4.1-6.1c2.1-3.2,4.7-6.8,7.8-10.9
			c3-4.1,6.2-8.4,9.6-13.1c3.4-4.7,6.6-8.9,9.6-12.7c3-3.8,5.8-6.9,8.2-9.5c2.4-2.6,4.1-3.8,5-3.8
			C638,595.2,636.5,597.8,634.9,600.8z M805.2,625.7c-1.5,1.5-3.8,3.8-6.9,6.8c-3,3-6.2,6.1-9.6,9.3c-3.4,3.2-6.3,5.9-8.9,8.1
			c-2.6,2.3-4.2,3.4-4.8,3.4c-0.6,0.3-0.9,0.3-0.9,0c0-0.3,0.1-0.7,0.2-1.1c0.1-0.5,0.7-1.4,1.6-2.9c0.9-1.5,3.4-5.2,7.5-11.1
			s8.5-12,13.3-18.3c4.7-6.3,9.1-11.8,13-16.3c4-4.5,6.4-6.2,7.3-5C812.5,607.9,808.6,617,805.2,625.7z"/>
	</g>
	<rect x="12.7" y="612.5" class="st2" width="10.5" height="9"/>
</g>
</svg>
